<svg width="500" height="107" fill="none" xmlns="http://www.w3.org/2000/svg"><path d="M72.644 14.61L0 0v68.979l2.84.56V3.611l69.804 13.854V14.61zm28.916 63.153v25.511l-32.828-6.519v2.84l35.668 7.29V78.324l-2.84-.56zm131.821-49.731h-2.061v58.056h2.061V28.032z" fill="#E6D6C7"/><path d="M17.77 21.116h3.265v10.317h3.127l7.504-10.317h3.82L26.8 32.786l9.378 12.647h-4.03l-7.987-11.01h-3.127v11.014H17.77v-24.32zM46.253 45.71c-2.48 0-4.43-.729-5.853-2.187-1.423-1.46-2.138-3.556-2.138-6.287v-.971c0-2.708.715-4.8 2.151-6.268 1.437-1.468 3.383-2.207 5.836-2.207 2.48 0 4.43.73 5.853 2.189 1.422 1.458 2.138 3.555 2.138 6.286v.971c0 2.708-.72 4.8-2.152 6.268-1.436 1.473-3.378 2.207-5.835 2.207zm0-2.844c1.459 0 2.612-.456 3.456-1.372.843-.916 1.267-2.334 1.267-4.253v-.971c0-1.897-.424-3.31-1.267-4.24-.844-.925-1.997-1.39-3.456-1.39-1.459 0-2.612.455-3.455 1.372-.848.916-1.268 2.334-1.268 4.253v.971c0 1.901.424 3.314 1.268 4.24.843.925 1.996 1.39 3.455 1.39zm11.813-14.802h2.43l.346 2.43h.069c.811-.971 1.66-1.669 2.553-2.084.893-.415 1.96-.624 3.214-.624 1.044 0 1.992.177 2.849.538a6.11 6.11 0 012.224 1.6c.625.706 1.108 1.586 1.441 2.64.333 1.052.502 2.288.502 3.696v.971c0 1.39-.174 2.613-.52 3.666-.347 1.053-.834 1.942-1.459 2.657a5.912 5.912 0 01-2.225 1.614c-.857.36-1.796.538-2.812.538-1.181 0-2.193-.187-3.041-.556-.848-.37-1.637-.971-2.38-1.805h-.068v9.03h-3.127v-24.31h.004zm7.745 14.802c1.414 0 2.535-.456 3.37-1.372.834-.916 1.248-2.334 1.248-4.254v-.97c0-1.874-.424-3.283-1.267-4.222-.848-.939-1.965-1.409-3.35-1.409-1.414 0-2.535.456-3.37 1.373-.834.916-1.249 2.334-1.249 4.253v.97c0 1.875.424 3.283 1.268 4.222.843.94 1.96 1.409 3.35 1.409zm11.707-14.802h14.241v17.369h-3.127v-14.52h-7.987v14.52h-3.127v-17.37zm26.053 17.646c-2.48 0-4.431-.729-5.854-2.187-1.422-1.46-2.138-3.556-2.138-6.287v-.971c0-2.708.716-4.8 2.152-6.268 1.436-1.468 3.382-2.207 5.835-2.207 2.475 0 4.427.73 5.853 2.189 1.423 1.458 2.139 3.555 2.139 6.286v.971c0 2.708-.721 4.8-2.157 6.268-1.431 1.473-3.373 2.207-5.83 2.207zm0-2.844c1.458 0 2.612-.456 3.455-1.372.844-.916 1.267-2.334 1.267-4.253v-.971c0-1.897-.423-3.31-1.267-4.24-.848-.925-1.997-1.39-3.455-1.39-1.459 0-2.613.455-3.456 1.372-.843.916-1.267 2.334-1.267 4.253v.971c0 1.901.424 3.314 1.267 4.24.843.925 1.997 1.39 3.456 1.39zm11.811-14.802h2.43l.347 2.43h.068c.812-.971 1.66-1.669 2.553-2.084.894-.415 1.965-.624 3.214-.624 1.044 0 1.992.177 2.849.538.857.36 1.6.893 2.225 1.6.624.706 1.103 1.586 1.44 2.64.338 1.052.502 2.288.502 3.696v.971c0 1.39-.173 2.613-.52 3.666-.346 1.053-.834 1.942-1.459 2.657a5.907 5.907 0 01-2.224 1.614c-.857.36-1.796.538-2.813.538-1.181 0-2.193-.187-3.041-.556-.843-.37-1.636-.971-2.379-1.805h-.069v9.03h-3.127v-24.31h.004zm7.746 14.802c1.413 0 2.534-.456 3.369-1.372.834-.916 1.249-2.334 1.249-4.254v-.97c0-1.874-.424-3.283-1.267-4.222-.844-.939-1.965-1.409-3.351-1.409-1.413 0-2.535.456-3.369 1.373-.834.916-1.249 2.334-1.249 4.253v.97c0 1.875.424 3.283 1.267 4.222.843.94 1.96 1.409 3.351 1.409zm16.397 2.844c-1.969 0-3.446-.464-4.431-1.39-.984-.925-1.477-2.188-1.477-3.788 0-1.737.584-3.11 1.755-4.117 1.167-1.007 3.073-1.513 5.712-1.513h3.994v-.94c0-1.134-.296-1.973-.885-2.516-.592-.542-1.568-.816-2.935-.816-1.249 0-2.166.215-2.745.643-.579.428-.916.98-1.007 1.65h-3.196c.046-.715.223-1.39.538-2.015a4.913 4.913 0 011.336-1.632c.579-.465 1.29-.83 2.138-1.094.843-.264 1.823-.401 2.936-.401 2.384 0 4.139.533 5.26 1.596 1.122 1.066 1.687 2.653 1.687 4.759v11.287h-2.43l-.383-2.603h-.068c-1.413 1.933-3.346 2.89-5.799 2.89zm.347-2.844a5.69 5.69 0 002.033-.365 5.324 5.324 0 001.669-1.012 4.786 4.786 0 001.112-1.504 4.33 4.33 0 00.401-1.837v-.63h-3.82c-1.623 0-2.758.274-3.406.821-.647.547-.971 1.263-.971 2.152 0 .697.247 1.272.748 1.714.492.438 1.235.66 2.234.66zm26.4 2.567h-13.376v-17.37h3.128v14.52h7.814v-14.52h3.127v14.52h2.43v7.363h-3.128v-4.513h.005zm6.082-17.369h3.127v13.548h.068l7.572-13.548h4.167v17.369h-3.127V31.889h-.069l-7.572 13.548h-4.166V28.064zm22.123 10.699c-1.112-.438-1.924-1.076-2.43-1.91-.511-.834-.766-1.864-.766-3.09 0-1.806.565-3.21 1.701-4.204 1.135-.994 2.999-1.495 5.593-1.495h5.904v17.369h-3.128v-6.04h-3.337c-.186 0-.369-.014-.556-.037l-3.405 6.077h-3.474l3.898-6.67zm.073-5c0 .902.301 1.59.902 2.064.602.474 1.701.712 3.301.712h2.608v-5.626h-2.608c-1.623 0-2.726.237-3.319.711-.592.479-.884 1.19-.884 2.138zM18.044 48.245l4.864.967 6.496 15.6.069.014L35.969 51.8l4.654.926v24.316l-3.264-.647V55.9l-.068-.014-6.218 12.486-3.474-.688-6.218-14.957-.068-.014v20.496l-3.264-.647V48.245h-.005zm37.172 31.971c-1.527-.305-2.918-.834-4.167-1.591a11.727 11.727 0 01-3.232-2.9c-.903-1.176-1.605-2.548-2.102-4.116-.497-1.568-.747-3.305-.747-5.202V64.74c0-1.805.25-3.364.747-4.682.497-1.313 1.2-2.37 2.102-3.177.903-.807 1.988-1.336 3.25-1.596 1.263-.26 2.645-.237 4.153.06 1.39.277 2.635.72 3.734 1.33a11.848 11.848 0 012.85 2.18 11.316 11.316 0 011.946 2.785c.497 1.012.839 2.07 1.026 3.173l-3.474-.688a9.356 9.356 0 00-.78-1.96 7.738 7.738 0 00-1.249-1.706 7.184 7.184 0 00-1.773-1.326 8.143 8.143 0 00-2.275-.798c-.971-.192-1.883-.192-2.726-.005a4.387 4.387 0 00-2.17 1.186c-.602.597-1.076 1.386-1.422 2.356-.347.976-.52 2.157-.52 3.543v1.668c0 1.459.173 2.772.52 3.944.346 1.171.83 2.178 1.44 3.031a8.038 8.038 0 002.17 2.083 7.79 7.79 0 002.708 1.094c1.691.338 3.04.146 4.048-.57 1.008-.715 1.687-1.768 2.033-3.159l3.474.689c-.187 1.121-.529 2.115-1.026 2.977a6.373 6.373 0 01-1.946 2.115c-.798.547-1.75.907-2.85 1.085-1.107.173-2.352.123-3.742-.155zm13.549-21.905l18.759 3.724v24.317l-3.264-.647v-21.33l-12.227-2.426v21.33l-3.264-.647V58.311h-.004zM262.51 42.296h-.578a4.093 4.093 0 01-1.532-.273 3.186 3.186 0 01-1.176-.794 3.484 3.484 0 01-.753-1.267c-.177-.497-.264-1.067-.264-1.705v-.465c0-.63.091-1.194.274-1.691.182-.497.437-.921.761-1.268.324-.346.72-.615 1.176-.802a3.98 3.98 0 011.518-.283h.579v-3.182h1.491v3.182h.579c.565 0 1.076.092 1.531.274.461.182.853.447 1.177.793.323.347.579.77.752 1.268.178.496.264 1.066.264 1.705v.465a4.99 4.99 0 01-.273 1.7c-.183.501-.438.93-.762 1.276-.323.347-.72.616-1.176.794-.46.182-.962.273-1.513.273h-.579v3.182h-1.491v-3.182h-.005zm-2.748-4.039c0 .894.2 1.564.606 2.015.401.447.925.67 1.564.67h.578v-5.835h-.578c-.661 0-1.19.219-1.582.656-.392.438-.588 1.113-.588 2.029v.465zm6.993-.465c0-.894-.201-1.564-.607-2.015-.401-.447-.925-.67-1.563-.67h-.579v5.83h.579c.661 0 1.19-.218 1.582-.656.392-.438.588-1.112.588-2.029v-.46zm6.856 4.504a4.35 4.35 0 01-1.582-.274 3.256 3.256 0 01-1.199-.793 3.515 3.515 0 01-.761-1.267c-.178-.497-.264-1.067-.264-1.705v-.465c0-.643.086-1.213.264-1.714.178-.502.429-.926.752-1.268a3.248 3.248 0 011.176-.788 4.111 4.111 0 011.532-.274c.565 0 1.076.092 1.532.274.456.182.852.451 1.176.807.324.355.579.788.752 1.294.178.511.265 1.1.265 1.765v.597h-5.899c.022.78.223 1.381.606 1.81.383.428.903.642 1.564.642.528 0 .966-.1 1.308-.296.342-.196.602-.515.78-.953h1.559c-.201.857-.607 1.51-1.218 1.947-.61.442-1.39.661-2.343.661zm-.082-7.19c-.629 0-1.126.183-1.491.548-.364.365-.583.893-.661 1.59h4.322c-.132-1.426-.857-2.137-2.17-2.137zm4.723 5.699h.829c.178-.241.324-.501.438-.77.114-.269.21-.574.283-.912.073-.337.123-.73.15-1.176.027-.447.041-.976.041-1.582v-2.484h5.963v6.924h.994v3.51h-1.427v-2.151h-5.849v2.152h-1.427v-3.51h.005zm6.213 0V35.24h-3.05v1.126c0 .543-.009 1.026-.032 1.45-.022.424-.059.811-.113 1.158a7.53 7.53 0 01-.215.962 6.28 6.28 0 01-.314.838v.032h3.724zm7.372 1.491a4.345 4.345 0 01-1.582-.274 3.24 3.24 0 01-1.199-.793 3.487 3.487 0 01-.761-1.267c-.178-.497-.265-1.067-.265-1.705v-.465c0-.643.087-1.213.265-1.714.177-.502.428-.926.752-1.268a3.248 3.248 0 011.176-.788 4.111 4.111 0 011.532-.274c.56 0 1.076.092 1.532.274.46.182.852.451 1.176.807.323.355.579.788.752 1.294.178.511.264 1.1.264 1.765v.597h-5.899c.023.78.224 1.381.607 1.81.382.428.902.642 1.563.642.529 0 .967-.1 1.309-.296.341-.196.601-.515.779-.953h1.559c-.2.857-.606 1.51-1.217 1.947-.611.442-1.395.661-2.343.661zm-.082-7.19c-.629 0-1.126.183-1.491.548-.365.365-.583.893-.661 1.59h4.322c-.132-1.426-.857-2.137-2.17-2.137zm5.711-1.226h1.158l.165 1.158h.031c.388-.465.794-.793 1.218-.993.424-.201.934-.297 1.531-.297.497 0 .949.087 1.359.256.41.173.761.424 1.062.76.296.338.529.758.688 1.26.16.5.242 1.089.242 1.763v.465c0 .661-.082 1.245-.251 1.746a3.573 3.573 0 01-.697 1.268 2.866 2.866 0 01-1.062.77 3.412 3.412 0 01-1.341.255c-.565 0-1.048-.086-1.449-.264-.401-.178-.78-.465-1.135-.862h-.032v4.308h-1.491V33.88h.004zm3.698 7.057c.674 0 1.208-.218 1.604-.656.397-.438.598-1.112.598-2.029v-.46c0-.894-.201-1.564-.607-2.015-.401-.447-.934-.67-1.6-.67-.675 0-1.208.219-1.605.656-.396.438-.597 1.113-.597 2.029v.465c0 .893.201 1.564.606 2.015.406.442.935.666 1.601.666zm7.983 1.359c-.939 0-1.641-.219-2.111-.661-.47-.442-.702-1.044-.702-1.805 0-.83.278-1.482.839-1.965.556-.479 1.468-.72 2.726-.72h1.905v-.447c0-.543-.141-.94-.423-1.2-.283-.259-.748-.387-1.4-.387-.597 0-1.035.1-1.308.306a1.124 1.124 0 00-.479.788h-1.523c.023-.341.11-.66.256-.961.15-.297.36-.556.638-.78a3.095 3.095 0 011.016-.52 4.645 4.645 0 011.4-.191c1.14 0 1.974.255 2.512.761.533.51.802 1.268.802 2.27v5.384h-1.158l-.182-1.244h-.032c-.684.916-1.605 1.372-2.776 1.372zm.168-1.358c.342 0 .666-.06.971-.174a2.49 2.49 0 00.794-.483c.228-.205.401-.447.528-.716.128-.269.192-.565.192-.875v-.3h-1.824c-.775 0-1.312.131-1.622.391-.31.26-.465.602-.465 1.026 0 .333.118.606.355.816.237.21.597.315 1.071.315zm5.384 0h.246c.319 0 .57-.105.752-.315.183-.21.315-.51.397-.903.082-.392.132-.866.15-1.417.019-.552.023-1.172.023-1.856v-2.566h5.963v8.283h-1.491v-6.925h-2.981v1.208c0 .761-.018 1.495-.05 2.202-.032.707-.137 1.331-.315 1.874-.178.542-.456.97-.839 1.29-.383.319-.921.478-1.614.478h-.246v-1.353h.005zm10.025-7.058h1.49v2.65h1.655c1.14 0 1.974.245 2.512.747.538.497.802 1.185.802 2.07 0 .87-.269 1.559-.811 2.06-.543.502-1.377.752-2.503.752h-3.145v-8.278zm1.49 4.012v2.918h1.573c.675 0 1.149-.123 1.427-.365.278-.241.415-.606.415-1.094 0-.474-.141-.839-.424-1.085-.283-.246-.752-.374-1.418-.374h-1.573zm6.624-4.012h1.491v3.379h4.144V33.88h1.49v8.283h-1.49v-3.547h-4.144v3.547h-1.491V33.88zm11.849 8.416c-.939 0-1.641-.219-2.111-.661-.469-.442-.702-1.044-.702-1.805 0-.83.278-1.482.839-1.965.556-.479 1.468-.72 2.726-.72h1.906v-.447c0-.543-.142-.94-.424-1.2-.283-.259-.748-.387-1.4-.387-.597 0-1.035.1-1.308.306a1.124 1.124 0 00-.479.788h-1.523c.023-.341.11-.66.256-.961.15-.297.36-.556.638-.78a3.095 3.095 0 011.016-.52 4.645 4.645 0 011.4-.191c1.14 0 1.974.255 2.512.761.533.51.802 1.268.802 2.27v5.384h-1.158l-.182-1.244h-.032c-.684.916-1.609 1.372-2.776 1.372zm.164-1.358c.342 0 .665-.06.971-.174.305-.118.57-.278.793-.483.228-.205.401-.447.529-.716.128-.269.191-.565.191-.875v-.3h-1.823c-.775 0-1.313.131-1.623.391-.31.26-.465.602-.465 1.026 0 .333.119.606.356.816.237.21.597.315 1.071.315zm7.49-1.956c-.529-.21-.916-.515-1.158-.912-.241-.397-.365-.889-.365-1.472 0-.862.269-1.532.812-2.006.542-.474 1.431-.711 2.667-.711h2.817v8.283h-1.491v-2.881h-1.591c-.086 0-.177-.005-.264-.019l-1.623 2.9h-1.655l1.851-3.182zm.032-2.384c0 .428.141.76.429.984.287.228.811.342 1.572.342h1.245V35.24h-1.245c-.775 0-1.299.114-1.582.342-.278.223-.419.565-.419 1.017zm11.365-2.718h1.491v3.297h1.158l2.252-3.296h1.723l-2.799 3.925 3.132 4.358h-1.787l-2.517-3.629h-1.157v3.629h-1.491V33.88h-.005zm11.762 8.416c-1.181 0-2.111-.346-2.79-1.044-.68-.698-1.022-1.696-1.022-3v-.46c0-1.29.342-2.289 1.026-2.99.684-.703 1.614-1.054 2.786-1.054 1.18 0 2.11.347 2.79 1.044.679.698 1.021 1.696 1.021 3v.465c0 1.29-.342 2.288-1.026 2.99-.688.698-1.614 1.049-2.785 1.049zm0-1.358c.697 0 1.244-.22 1.65-.657.401-.438.606-1.112.606-2.029v-.46c0-.907-.2-1.582-.606-2.02-.401-.442-.953-.66-1.65-.66-.698 0-1.245.218-1.651.656-.401.438-.606 1.112-.606 2.029v.465c0 .907.201 1.581.606 2.019.406.438.953.657 1.651.657zm5.798-7.058h1.158l.165 1.158h.031c.388-.465.794-.793 1.218-.993.424-.201.934-.297 1.531-.297.497 0 .949.087 1.359.256.41.173.761.424 1.062.76.296.338.529.758.688 1.26.16.5.242 1.089.242 1.763v.465c0 .661-.082 1.245-.251 1.746a3.573 3.573 0 01-.697 1.268 2.858 2.858 0 01-1.062.77 3.412 3.412 0 01-1.341.255c-.565 0-1.048-.086-1.449-.264-.401-.178-.78-.465-1.135-.862h-.032v4.308h-1.491V33.88h.004zm3.693 7.057c.675 0 1.208-.218 1.605-.656.396-.438.597-1.112.597-2.029v-.46c0-.894-.201-1.564-.606-2.015-.402-.447-.935-.67-1.6-.67-.675 0-1.209.219-1.605.656-.397.438-.597 1.113-.597 2.029v.465c0 .893.2 1.564.606 2.015.406.442.939.666 1.6.666zm5.748-7.057h6.793v8.284h-1.491v-6.925h-3.811v6.925h-1.491V33.88zm12.592 8.416c-1.181 0-2.111-.346-2.79-1.044-.68-.698-1.021-1.696-1.021-3v-.46c0-1.29.341-2.289 1.025-2.99.684-.703 1.614-1.054 2.786-1.054 1.18 0 2.11.347 2.79 1.044.679.698 1.021 1.696 1.021 3v.465c0 1.29-.342 2.288-1.026 2.99-.684.698-1.614 1.049-2.785 1.049zm0-1.358c.697 0 1.244-.22 1.65-.657.401-.438.606-1.112.606-2.029v-.46c0-.907-.2-1.582-.606-2.02-.401-.442-.953-.66-1.65-.66-.698 0-1.245.218-1.651.656-.401.438-.606 1.112-.606 2.029v.465c0 .907.201 1.581.606 2.019.406.438.958.657 1.651.657zm5.799-7.058h1.157l.165 1.158h.032c.387-.465.793-.793 1.217-.993.424-.201.934-.297 1.531-.297.497 0 .949.087 1.359.256.41.168.761.424 1.062.76.296.338.529.758.689 1.26.159.5.241 1.089.241 1.763v.465c0 .661-.082 1.245-.251 1.746a3.573 3.573 0 01-.697 1.268 2.858 2.858 0 01-1.062.77 3.412 3.412 0 01-1.341.255c-.565 0-1.048-.086-1.449-.264-.401-.178-.78-.465-1.135-.862h-.032v4.308h-1.491V33.88h.005zm3.697 7.057c.674 0 1.208-.218 1.604-.656.397-.438.598-1.112.598-2.029v-.46c0-.894-.201-1.564-.607-2.015-.401-.447-.934-.67-1.6-.67-.675 0-1.208.219-1.605.656-.396.438-.597 1.113-.597 2.029v.465c0 .893.201 1.564.607 2.015.401.442.934.666 1.6.666zm7.982 1.359c-.939 0-1.641-.219-2.111-.661-.469-.442-.702-1.044-.702-1.805 0-.83.278-1.482.839-1.965.556-.479 1.468-.72 2.726-.72h1.906v-.447c0-.543-.142-.94-.424-1.2-.283-.259-.748-.387-1.4-.387-.597 0-1.035.1-1.308.306a1.124 1.124 0 00-.479.788h-1.523c.023-.341.11-.66.256-.961.15-.297.36-.556.638-.78a3.09 3.09 0 011.017-.52c.401-.127.87-.191 1.399-.191 1.14 0 1.974.255 2.512.761.533.51.802 1.268.802 2.27v5.384h-1.158l-.182-1.244h-.032c-.684.916-1.605 1.372-2.776 1.372zm.169-1.358c.341 0 .665-.06.971-.174.305-.118.569-.278.793-.483.228-.205.405-.447.529-.716a2.05 2.05 0 00.191-.875v-.3h-1.823c-.775 0-1.313.131-1.623.391-.31.26-.465.602-.465 1.026 0 .333.118.606.355.816.237.21.597.315 1.072.315zm12.754 1.226h-6.378V33.88h1.491v6.924h3.729V33.88h1.491v6.924h1.158v3.51h-1.491v-2.151zm3.065-8.284h1.491v6.46h.031l3.611-6.46h1.988v8.284h-1.491v-6.46h-.032l-3.611 6.46h-1.987V33.88zm10.721 5.102c-.529-.21-.916-.515-1.158-.912-.242-.397-.365-.889-.365-1.472 0-.862.269-1.532.812-2.006.542-.474 1.431-.711 2.667-.711h2.817v8.283H450.8v-2.881h-1.591a1.71 1.71 0 01-.264-.019l-1.623 2.9h-1.655l1.851-3.182zm.032-2.384c0 .428.141.76.428.984.287.228.812.342 1.573.342h1.245V35.24h-1.245c-.775 0-1.299.114-1.582.342-.278.223-.419.565-.419 1.017zM258.704 53.119h6.793v8.283h-1.491v-6.925h-3.811v6.925h-1.491v-8.283zm12.591 8.42c-1.18 0-2.11-.347-2.789-1.044-.68-.698-1.022-1.696-1.022-3v-.465c0-1.29.342-2.289 1.026-2.99.684-.703 1.614-1.054 2.785-1.054 1.181 0 2.111.347 2.79 1.044.68.698 1.022 1.696 1.022 3v.465c0 1.29-.342 2.288-1.026 2.99-.688.703-1.618 1.054-2.786 1.054zm0-1.359c.698 0 1.245-.219 1.651-.656.401-.438.606-1.113.606-2.03v-.464c0-.907-.201-1.582-.606-2.02-.401-.442-.953-.66-1.651-.66-.697 0-1.244.218-1.65.656-.401.438-.606 1.112-.606 2.029v.465c0 .907.2 1.581.606 2.019.401.438.953.661 1.65.661zm9.938-7.062h1.158l.164 1.158h.032c.388-.465.793-.793 1.217-.993.424-.2.935-.297 1.532-.297.497 0 .948.087 1.358.256.411.173.762.424 1.063.76.296.338.528.758.688 1.26.16.5.242 1.089.242 1.763v.465c0 .661-.082 1.245-.251 1.746a3.575 3.575 0 01-.698 1.268 2.858 2.858 0 01-1.062.77c-.41.173-.857.255-1.34.255-.565 0-1.049-.086-1.45-.264-.401-.178-.779-.465-1.135-.862h-.032v4.308h-1.49V53.118h.004zm3.693 7.062c.674 0 1.208-.219 1.604-.656.397-.438.598-1.113.598-2.03v-.464c0-.894-.201-1.564-.607-2.015-.401-.447-.934-.67-1.6-.67-.675 0-1.208.219-1.605.656-.396.438-.597 1.113-.597 2.029v.465c0 .894.201 1.564.607 2.015.405.442.939.67 1.6.67zm7.986 1.358c-.939 0-1.641-.218-2.11-.66-.47-.443-.702-1.044-.702-1.806 0-.83.278-1.481.838-1.965.557-.478 1.468-.72 2.727-.72h1.905v-.447c0-.542-.141-.939-.424-1.199-.282-.26-.747-.387-1.399-.387-.598 0-1.035.1-1.309.305a1.123 1.123 0 00-.478.789h-1.523c.023-.342.109-.661.255-.962.151-.296.36-.556.638-.78a3.11 3.11 0 011.017-.52 4.641 4.641 0 011.4-.19c1.139 0 1.974.255 2.511.76.534.511.803 1.268.803 2.27v5.385h-1.158l-.182-1.245h-.032c-.684.912-1.605 1.373-2.777 1.373zm.164-1.358c.342 0 .666-.06.972-.173.305-.119.569-.278.793-.483a2.33 2.33 0 00.529-.716c.127-.274.191-.566.191-.876v-.3h-1.823c-.775 0-1.313.132-1.623.392-.31.26-.465.601-.465 1.025 0 .333.118.607.355.816.242.206.597.315 1.071.315zm9.113 1.359c-1.149 0-1.992-.242-2.534-.73-.543-.487-.857-1.171-.944-2.056h1.559c.087.465.269.816.547 1.062.278.242.734.365 1.377.365.652 0 1.108-.105 1.367-.314.26-.21.388-.493.388-.844 0-.355-.132-.633-.388-.843-.259-.21-.715-.315-1.367-.315h-.912v-1.358h.912c.542 0 .925-.1 1.158-.297a.98.98 0 00.346-.78.98.98 0 00-.346-.779c-.233-.2-.62-.296-1.158-.296-.543 0-.935.11-1.176.324-.242.214-.411.529-.497.934h-1.559c.086-.816.387-1.459.902-1.924.515-.465 1.29-.697 2.33-.697 1.039 0 1.81.223 2.311.661.502.438.752 1.012.752 1.705 0 .83-.355 1.413-1.062 1.755v.032c.871.356 1.308.998 1.308 1.938 0 .72-.268 1.308-.802 1.764-.538.46-1.372.693-2.512.693zm5.302-8.42h3.232c1.081 0 1.865.21 2.344.629.478.42.72.975.72 1.668 0 .356-.087.67-.265.953a2.098 2.098 0 01-.761.702v.032c.433.178.766.428 1.003.757.237.328.356.706.356 1.135 0 .752-.242 1.34-.721 1.769-.478.424-1.262.638-2.343.638h-3.56v-8.283h-.005zm4.737 2.388c0-.319-.114-.57-.342-.752-.228-.182-.643-.273-1.249-.273h-1.655v2.07h1.655c.606 0 1.025-.092 1.249-.274.228-.182.342-.442.342-.77zm.333 3.406c0-.356-.114-.634-.347-.825-.232-.196-.647-.292-1.244-.292h-1.988v2.252h1.988c.597 0 1.012-.096 1.244-.292.233-.196.347-.478.347-.843zm3.546-5.794h1.491v6.46h.032l3.611-6.46h1.987v8.283h-1.49v-6.46h-.032l-3.611 6.46h-1.988v-8.283zm11.265 1.358h-2.648V53.12h6.792v1.358h-2.648v6.925h-1.491v-6.925h-.005zm5.631-1.358h1.491v6.46h.032l3.61-6.46h1.988v8.283h-1.491v-6.46h-.032l-3.61 6.46h-1.988v-8.283zm9.609 0h1.491v3.378h1.509c.087-1.126.456-1.992 1.103-2.603.648-.607 1.491-.912 2.526-.912 1.117 0 2.001.346 2.657 1.035.657.688.985 1.691.985 3.008v.465c0 1.304-.333 2.303-.994 3-.661.698-1.545 1.044-2.648 1.044-1.072 0-1.933-.314-2.585-.944-.652-.629-1.003-1.54-1.062-2.735h-1.491v3.547h-1.491v-8.283zm6.629 7.061c.643 0 1.149-.214 1.522-.638.374-.424.566-1.108.566-2.047v-.465c0-.939-.192-1.623-.57-2.047-.383-.424-.885-.638-1.518-.638-.652 0-1.167.21-1.541.63-.374.419-.565 1.075-.565 1.973v.465c0 .971.191 1.678.569 2.11.383.438.894.657 1.537.657zm9.775-7.061h2.22l2.202 4.723h.032l2.201-4.723h2.12v8.283h-1.49v-6.46h-.032l-2.12 4.554h-1.491l-2.12-4.554h-.032v6.46h-1.49v-8.283zm13.502 8.419c-.939 0-1.641-.218-2.111-.66-.469-.443-.702-1.044-.702-1.806 0-.83.278-1.481.839-1.965.556-.478 1.468-.72 2.726-.72h1.906v-.447c0-.542-.142-.939-.424-1.199-.283-.26-.748-.387-1.4-.387-.597 0-1.035.1-1.308.305a1.124 1.124 0 00-.479.789h-1.523c.023-.342.11-.661.256-.962.15-.296.36-.556.638-.78a3.09 3.09 0 011.017-.52c.401-.127.87-.19 1.399-.19 1.14 0 1.974.255 2.512.76.533.511.802 1.268.802 2.27v5.385h-1.158l-.182-1.245h-.032c-.684.912-1.609 1.373-2.776 1.373zm.164-1.358c.342 0 .666-.06.971-.173.305-.119.57-.278.793-.483.228-.206.401-.447.529-.716.128-.274.191-.566.191-.876v-.3h-1.823c-.775 0-1.313.132-1.623.392-.31.26-.465.601-.465 1.025 0 .333.119.607.356.816.237.21.597.315 1.071.315zm5.384 0h.246c.319 0 .57-.105.752-.315.183-.21.315-.51.397-.902.082-.392.132-.866.151-1.418.018-.552.022-1.172.022-1.855v-2.567h5.963v8.283h-1.491v-6.929h-2.981v1.208c0 .761-.018 1.495-.05 2.202-.032.707-.137 1.331-.315 1.874-.177.542-.456.97-.838 1.29-.383.319-.921.478-1.614.478h-.246V60.18h.004zm13.339 1.359c-1.181 0-2.111-.347-2.79-1.044-.679-.698-1.021-1.696-1.021-3v-.465c0-1.29.342-2.289 1.025-2.99.684-.703 1.614-1.054 2.786-1.054 1.181 0 2.111.347 2.79 1.044.679.698 1.021 1.696 1.021 3v.465c0 1.29-.342 2.288-1.026 2.99-.688.703-1.614 1.054-2.785 1.054zm0-1.359c.697 0 1.244-.219 1.65-.656.401-.438.606-1.113.606-2.03v-.464c0-.907-.2-1.582-.606-2.02-.401-.442-.953-.66-1.65-.66-.698 0-1.245.218-1.65.656-.402.438-.607 1.112-.607 2.029v.465c0 .907.201 1.581.607 2.019.401.438.952.661 1.65.661zm5.799-7.061h5.548v1.358h-4.057v6.925h-1.491v-8.283zm10.352 8.42c-1.18 0-2.11-.347-2.79-1.044-.679-.698-1.021-1.696-1.021-3v-.465c0-1.29.342-2.289 1.026-2.99.684-.703 1.614-1.054 2.785-1.054 1.181 0 2.111.347 2.79 1.044.679.698 1.021 1.696 1.021 3v.465c0 1.29-.342 2.288-1.025 2.99-.689.703-1.614 1.054-2.786 1.054zm0-1.359c.698 0 1.245-.219 1.651-.656.401-.438.606-1.113.606-2.03v-.464c0-.907-.201-1.582-.606-2.02-.402-.442-.953-.66-1.651-.66-.697 0-1.244.218-1.65.656-.401.438-.606 1.112-.606 2.029v.465c0 .907.2 1.581.606 2.019.406.438.953.661 1.65.661zm9.939-7.061h1.491v6.46h.032l3.61-6.46h1.988v8.283h-1.491v-6.46h-.032l-3.61 6.46h-1.988v-8.283zm16.899 8.42c-1.116 0-2.001-.347-2.657-1.044-.657-.698-.985-1.724-.985-3.082v-.465c0-.63.087-1.185.264-1.673.178-.488.424-.898.739-1.245a3.074 3.074 0 011.144-.78 4.031 4.031 0 011.5-.264c.52 0 .98.069 1.381.206.401.136.748.323 1.035.556.287.232.52.51.698.83.177.318.296.66.364 1.025h-1.559a1.973 1.973 0 00-.62-.894c-.292-.241-.697-.364-1.217-.364-.661 0-1.19.214-1.582.638-.392.424-.588 1.08-.588 1.965v.465c0 .962.196 1.664.588 2.102.392.442.921.66 1.582.66.52 0 .925-.132 1.217-.387.292-.26.502-.606.62-1.035h1.559c-.068.41-.187.78-.364 1.117-.178.337-.411.63-.698.88a3.128 3.128 0 01-1.035.579c-.405.137-.866.21-1.386.21zm5.22-8.421h1.158l.164 1.158h.032c.387-.465.793-.793 1.217-.993.424-.2.935-.297 1.532-.297.497 0 .948.087 1.358.256.411.173.762.424 1.063.76.296.338.528.758.688 1.26.159.5.241 1.089.241 1.763v.465c0 .661-.082 1.245-.25 1.746a3.575 3.575 0 01-.698 1.268 2.858 2.858 0 01-1.062.77c-.41.173-.857.255-1.34.255-.565 0-1.049-.086-1.45-.264-.401-.178-.779-.465-1.135-.862h-.032v4.308h-1.491V53.118h.005zm3.693 7.062c.674 0 1.208-.219 1.604-.656.397-.438.597-1.113.597-2.03v-.464c0-.894-.2-1.564-.606-2.015-.401-.447-.934-.67-1.6-.67-.675 0-1.208.219-1.605.656-.396.438-.597 1.113-.597 2.029v.465c0 .894.201 1.564.606 2.015.406.442.94.67 1.601.67zm9.062 1.359a4.35 4.35 0 01-1.582-.274 3.248 3.248 0 01-1.199-.793 3.5 3.5 0 01-.761-1.267c-.178-.497-.265-1.067-.265-1.705v-.465c0-.643.087-1.213.265-1.714.178-.502.428-.926.752-1.268a3.247 3.247 0 011.176-.788 4.11 4.11 0 011.532-.274c.565 0 1.076.091 1.532.273.46.183.852.452 1.176.807.324.356.579.79.752 1.295.178.51.264 1.099.264 1.764v.597h-5.899c.023.78.224 1.382.607 1.81.383.429.902.643 1.563.643.529 0 .967-.1 1.309-.296.342-.196.602-.515.779-.953h1.559c-.2.857-.606 1.509-1.217 1.947-.611.437-1.395.66-2.343.66zm-.082-7.194c-.629 0-1.126.182-1.491.547-.364.365-.583.893-.661 1.591h4.322c-.132-1.422-.857-2.138-2.17-2.138zm4.723 5.703h.83a3.8 3.8 0 00.438-.77c.114-.27.209-.575.282-.912a7.98 7.98 0 00.151-1.176c.027-.447.041-.976.041-1.582v-2.485h5.963v6.925h.994v3.51h-1.427v-2.152h-5.849v2.152h-1.427v-3.51h.004zm6.209 0v-5.571h-3.049v1.126c0 .542-.009 1.026-.032 1.45-.023.424-.06.811-.114 1.158a7.71 7.71 0 01-.214.962 6.4 6.4 0 01-.315.838v.032h3.724v.005zm4.061-6.929h1.491v3.378h4.144v-3.378h1.491v8.283h-1.491v-3.547h-4.144v3.547h-1.491v-8.283zm12.92 8.42a4.35 4.35 0 01-1.582-.274 3.256 3.256 0 01-1.199-.793 3.5 3.5 0 01-.761-1.267c-.178-.497-.264-1.067-.264-1.705v-.465c0-.643.086-1.213.264-1.714.178-.502.428-.926.752-1.268a3.247 3.247 0 011.176-.788 4.11 4.11 0 011.532-.274c.565 0 1.076.091 1.532.273.46.183.852.452 1.176.807.324.356.579.79.752 1.295.178.51.265 1.099.265 1.764v.597h-5.899c.022.78.223 1.382.606 1.81.383.429.902.643 1.564.643.528 0 .966-.1 1.308-.296.342-.196.602-.515.779-.953h1.56c-.201.857-.607 1.509-1.218 1.947-.611.437-1.39.66-2.343.66zm-.082-7.194c-.629 0-1.126.182-1.491.547-.364.365-.583.893-.661 1.591h4.322c-.132-1.422-.852-2.138-2.17-2.138zm5.717-1.226h5.548v1.358h-4.057v6.925h-1.491v-8.283zm10.353 8.42c-1.181 0-2.111-.347-2.79-1.044-.679-.698-1.021-1.696-1.021-3v-.465c0-1.29.342-2.289 1.026-2.99.683-.703 1.614-1.054 2.785-1.054 1.181 0 2.111.347 2.79 1.044.679.698 1.021 1.696 1.021 3v.465c0 1.29-.342 2.288-1.025 2.99-.684.703-1.614 1.054-2.786 1.054zm0-1.359c.698 0 1.245-.219 1.65-.656.402-.438.607-1.113.607-2.03v-.464c0-.907-.201-1.582-.607-2.02-.405-.442-.952-.66-1.65-.66-.697 0-1.244.218-1.65.656-.406.438-.606 1.112-.606 2.029v.465c0 .907.2 1.581.606 2.019.406.438.957.661 1.65.661zM258.704 72.361h6.793v8.283h-1.491V73.72h-3.811v6.924h-1.491v-8.283zm9.277 0h1.158l.164 1.158h.032c.388-.465.793-.793 1.217-.994.424-.2.935-.296 1.532-.296.497 0 .948.087 1.359.255.41.174.761.424 1.062.762.296.337.528.756.688 1.258.16.501.242 1.09.242 1.764v.465c0 .661-.082 1.245-.251 1.746a3.575 3.575 0 01-.698 1.267 2.85 2.85 0 01-1.062.77c-.41.174-.857.256-1.34.256-.565 0-1.049-.087-1.45-.264-.401-.178-.779-.465-1.135-.862h-.032v4.308h-1.49V72.361h.004zm3.693 7.057c.674 0 1.208-.219 1.604-.656.397-.438.598-1.113.598-2.029v-.465c0-.894-.201-1.564-.607-2.015-.401-.447-.934-.67-1.6-.67-.675 0-1.208.219-1.605.656-.396.438-.597 1.113-.597 2.03v.464c0 .894.201 1.564.607 2.015.405.447.939.67 1.6.67zm9.062 1.359a4.35 4.35 0 01-1.582-.274 3.256 3.256 0 01-1.199-.793 3.514 3.514 0 01-.761-1.267c-.178-.497-.264-1.067-.264-1.705v-.465c0-.643.086-1.213.264-1.715.178-.5.429-.925.752-1.267a3.248 3.248 0 011.176-.788 4.111 4.111 0 011.532-.274c.561 0 1.076.091 1.532.273.46.183.852.452 1.176.807.324.356.579.79.752 1.295.178.51.265 1.099.265 1.764v.598h-5.899c.022.78.223 1.38.606 1.81.383.428.903.642 1.564.642.528 0 .966-.1 1.308-.296.342-.196.602-.515.78-.953h1.559c-.201.857-.607 1.509-1.218 1.947-.61.442-1.395.66-2.343.66zm-.082-7.19c-.629 0-1.126.183-1.491.548-.364.364-.583.893-.661 1.59h4.322c-.132-1.426-.857-2.137-2.17-2.137zm4.719 5.699h.829c.178-.242.324-.502.438-.77.114-.27.21-.575.283-.912.073-.338.123-.73.15-1.177.027-.446.041-.975.041-1.581V72.36h5.963v6.925h.994v3.51h-1.427v-2.152h-5.849v2.152h-1.427v-3.51h.005zm6.213 0V73.72h-3.049v1.126c0 .542-.01 1.025-.032 1.45-.023.423-.06.81-.114 1.157-.055.347-.128.67-.215.962a6.27 6.27 0 01-.314.839v.032h3.724zm4.062-6.925h6.793v8.283h-1.491V73.72h-3.811v6.924h-1.491v-8.283zm9.277 0h1.158l.165 1.158h.031c.388-.465.794-.793 1.218-.994.424-.2.934-.296 1.531-.296.497 0 .949.087 1.359.255.41.169.761.424 1.062.762.296.337.529.756.688 1.258.16.501.242 1.09.242 1.764v.465c0 .661-.082 1.245-.251 1.746a3.573 3.573 0 01-.697 1.267 2.866 2.866 0 01-1.062.77 3.41 3.41 0 01-1.341.256c-.565 0-1.048-.087-1.449-.264-.402-.178-.78-.465-1.135-.862h-.032v4.308h-1.491V72.361h.004zm3.693 7.057c.675 0 1.208-.219 1.605-.656.396-.438.597-1.113.597-2.029v-.465c0-.894-.201-1.564-.606-2.015-.402-.447-.935-.67-1.601-.67-.674 0-1.208.219-1.604.656-.397.438-.597 1.113-.597 2.03v.464c0 .894.2 1.564.606 2.015.406.447.939.67 1.6.67zm5.748-7.057h1.491v6.46h.032l3.61-6.46h1.988v8.283h-1.491v-6.46h-.032l-3.61 6.46h-1.988v-8.283zm9.61 0h1.49v3.378h4.144v-3.378h1.491v8.283h-1.491v-3.546h-4.144v3.546h-1.49v-8.283zm9.61 0h1.491v6.46h.032l3.61-6.46h1.988v8.283h-1.491v-6.46h-.032l-3.61 6.46h-1.988v-8.283zm9.605 0h2.221l2.201 4.723h.032l2.202-4.723h2.12v8.283h-1.491v-6.46h-.032l-2.119 4.555h-1.491l-2.12-4.554h-.032v6.46h-1.491V72.36zm13.503 8.415c-.939 0-1.642-.218-2.111-.66-.47-.443-.702-1.044-.702-1.806 0-.83.278-1.481.839-1.965.556-.478 1.468-.72 2.726-.72h1.905v-.447c0-.542-.141-.939-.424-1.199-.282-.26-.747-.387-1.399-.387-.597 0-1.035.1-1.308.305a1.12 1.12 0 00-.479.789h-1.523c.023-.342.11-.661.255-.962a2.37 2.37 0 01.639-.78 3.093 3.093 0 011.016-.52 4.638 4.638 0 011.4-.19c1.14 0 1.974.255 2.512.76.533.511.802 1.268.802 2.271v5.384h-1.158l-.182-1.245h-.032c-.684.912-1.605 1.373-2.776 1.373zm.168-1.358c.342 0 .666-.06.971-.173a2.49 2.49 0 00.794-.484c.227-.205.401-.446.528-.715a2.04 2.04 0 00.192-.876v-.3h-1.824c-.775 0-1.313.132-1.623.392-.31.26-.465.602-.465 1.025 0 .333.119.607.356.816.237.21.593.315 1.071.315zm8.034-5.698h-2.649v-1.36h6.793v1.359h-2.649v6.924H364.9V73.72h-.004zm8.949 7.057a4.342 4.342 0 01-1.582-.274 3.24 3.24 0 01-1.199-.793 3.502 3.502 0 01-.762-1.267c-.177-.497-.264-1.067-.264-1.705v-.465c0-.643.087-1.213.264-1.715.178-.5.429-.925.753-1.267a3.231 3.231 0 011.176-.788 4.111 4.111 0 011.532-.274c.565 0 1.075.091 1.531.273a3.11 3.11 0 011.176.807c.324.356.579.79.753 1.295.177.51.264 1.099.264 1.764v.598h-5.899c.023.78.223 1.38.606 1.81.383.428.903.642 1.564.642.529 0 .966-.1 1.308-.296.342-.196.602-.515.78-.953h1.559c-.201.857-.606 1.509-1.217 1.947-.616.442-1.395.66-2.343.66zm-.087-7.19c-.629 0-1.126.183-1.491.548-.364.364-.583.893-.661 1.59h4.322c-.132-1.426-.852-2.137-2.17-2.137zm4.723 5.831h.246c.319 0 .57-.105.752-.315.183-.21.315-.51.397-.902a8.48 8.48 0 00.151-1.418c.018-.552.022-1.171.022-1.855V72.36h5.963v8.283h-1.491V73.72h-2.981v1.208c0 .761-.018 1.495-.05 2.201-.032.707-.137 1.332-.315 1.874-.177.543-.456.971-.838 1.29-.383.32-.921.479-1.614.479h-.246v-1.354h.004zm10.025-7.057h1.491v2.649h1.654c1.14 0 1.974.246 2.512.747.538.497.803 1.186.803 2.07 0 .87-.269 1.56-.812 2.06-.542.502-1.377.753-2.503.753h-3.145v-8.28zm1.491 4.007v2.918h1.572c.675 0 1.149-.123 1.427-.365s.415-.606.415-1.094c0-.474-.141-.839-.424-1.085-.283-.246-.752-.374-1.418-.374h-1.572zm9.772 4.409c-1.116 0-2.001-.347-2.657-1.044-.657-.698-.985-1.724-.985-3.082v-.465c0-.63.087-1.185.264-1.673a3.71 3.71 0 01.739-1.245 3.074 3.074 0 011.144-.78 4.031 4.031 0 011.5-.264c.52 0 .98.069 1.381.206a3.35 3.35 0 011.035.556c.287.232.52.51.698.83.177.319.296.66.364 1.025h-1.559a1.972 1.972 0 00-.62-.893c-.292-.242-.697-.365-1.217-.365-.661 0-1.19.214-1.582.638-.392.424-.588 1.08-.588 1.965v.465c0 .962.196 1.664.588 2.102.392.442.921.66 1.582.66.52 0 .925-.132 1.217-.387.292-.26.502-.606.62-1.035h1.559c-.068.41-.187.78-.364 1.117-.178.337-.411.63-.698.88a3.128 3.128 0 01-1.035.579c-.405.141-.866.21-1.386.21zm6.876-7.057h-2.649v-1.36h6.793v1.359h-2.649v6.924h-1.491V73.72h-.004zm5.634-1.359h3.232c1.081 0 1.865.21 2.344.63.478.419.72.975.72 1.668 0 .355-.087.67-.264.953a2.11 2.11 0 01-.762.702v.031c.433.178.766.429 1.003.757.237.328.356.707.356 1.135 0 .753-.242 1.34-.721 1.77-.478.423-1.262.637-2.343.637h-3.56v-8.283h-.005zm4.737 2.384c0-.319-.114-.57-.342-.752-.228-.182-.643-.273-1.249-.273h-1.655v2.07h1.655c.606 0 1.026-.092 1.249-.274.228-.183.342-.438.342-.77zm.333 3.406c0-.356-.114-.634-.347-.825-.232-.197-.647-.292-1.244-.292h-1.988v2.252h1.988c.597 0 1.012-.096 1.244-.292.228-.196.347-.479.347-.843zm5.78 2.625c-.939 0-1.641-.218-2.111-.66-.469-.443-.702-1.044-.702-1.806 0-.83.279-1.481.839-1.965.556-.478 1.468-.72 2.726-.72h1.906v-.447c0-.542-.141-.939-.424-1.199-.283-.26-.748-.387-1.4-.387-.597 0-1.034.1-1.308.305a1.124 1.124 0 00-.479.789h-1.522c.023-.342.109-.661.255-.962.15-.296.36-.556.638-.78a3.098 3.098 0 011.017-.52 4.635 4.635 0 011.399-.19c1.14 0 1.974.255 2.512.76.534.511.803 1.268.803 2.271v5.384h-1.158l-.183-1.245h-.032c-.683.912-1.604 1.373-2.776 1.373zm.164-1.358c.342 0 .666-.06.971-.173a2.49 2.49 0 00.794-.484 2.19 2.19 0 00.528-.715 2.04 2.04 0 00.192-.876v-.3h-1.824c-.775 0-1.313.132-1.623.392-.31.26-.465.602-.465 1.025 0 .333.119.607.356.816.242.21.597.315 1.071.315z" fill="#E6D6C7"/></svg>