<svg width="500" height="107" viewBox="0 0 500 107" fill="none" xmlns="http://www.w3.org/2000/svg">
<path d="M72.6438 14.6108L0 0V68.9786L2.84011 69.5393V3.61054L72.6438 17.4646V14.6108Z" fill="#E6D6C7"/>
<path d="M101.56 77.7632V103.274L68.7324 96.755V99.5951L104.4 106.885V78.3239L101.56 77.7632Z" fill="#E6D6C7"/>
<path d="M233.381 28.0317H231.32V86.0875H233.381V28.0317Z" fill="#E6D6C7"/>
<path d="M17.7705 21.1162H21.0346V31.4327H24.1619L31.6656 21.1162H35.4858L26.8014 32.7866L36.1788 45.4326H32.1488L24.1619 34.4232H21.0346V45.4372H17.7705V21.1162V21.1162Z" fill="#E6D6C7"/>
<path d="M46.2532 45.7108C43.7733 45.7108 41.8221 44.9814 40.3998 43.5226C38.9774 42.0638 38.2617 39.9667 38.2617 37.236V36.265C38.2617 33.5571 38.9774 31.4646 40.4135 29.9967C41.8495 28.5288 43.796 27.7903 46.2487 27.7903C48.7286 27.7903 50.6798 28.5197 52.1021 29.9785C53.5244 31.4373 54.2402 33.5343 54.2402 36.265V37.236C54.2402 39.9439 53.5199 42.0364 52.0884 43.5043C50.6524 44.9768 48.7104 45.7108 46.2532 45.7108ZM46.2532 42.8661C47.712 42.8661 48.8654 42.4102 49.7088 41.4939C50.5521 40.5776 50.9761 39.1598 50.9761 37.2406V36.2696C50.9761 34.3731 50.5521 32.9599 49.7088 32.0299C48.8654 31.1045 47.712 30.6395 46.2532 30.6395C44.7944 30.6395 43.6411 31.0954 42.7977 32.0117C41.9498 32.928 41.5303 34.3458 41.5303 36.265V37.236C41.5303 39.137 41.9543 40.5502 42.7977 41.4757C43.6411 42.4011 44.7944 42.8661 46.2532 42.8661Z" fill="#E6D6C7"/>
<path d="M58.0661 28.0637H60.4959L60.8424 30.4935H60.9107C61.7222 29.5225 62.5701 28.825 63.4637 28.4102C64.3572 27.9953 65.4239 27.7856 66.6776 27.7856C67.7215 27.7856 68.6698 27.9634 69.5268 28.3236C70.3838 28.6837 71.1224 29.2171 71.7515 29.9237C72.376 30.6303 72.8593 31.5101 73.192 32.5632C73.5248 33.6163 73.6935 34.8517 73.6935 36.2604V37.2314C73.6935 38.6218 73.5203 39.8436 73.1738 40.8966C72.8273 41.9497 72.3396 42.8387 71.715 43.5544C71.0905 44.2747 70.3474 44.8126 69.4903 45.1682C68.6333 45.5283 67.6942 45.7061 66.6776 45.7061C65.4969 45.7061 64.4848 45.5192 63.6369 45.15C62.789 44.7807 62.0003 44.1789 61.2572 43.3447H61.1888V52.3756H58.0615V28.0637H58.0661ZM65.8114 42.866C67.2246 42.866 68.3461 42.4101 69.1803 41.4938C70.0146 40.5775 70.4294 39.1597 70.4294 37.2405V36.2695C70.4294 34.3958 70.0055 32.9872 69.1621 32.0481C68.3142 31.109 67.1973 30.6394 65.8114 30.6394C64.3982 30.6394 63.2767 31.0953 62.4425 32.0116C61.6082 32.9279 61.1934 34.3457 61.1934 36.2649V37.2359C61.1934 39.1096 61.6174 40.5183 62.4607 41.4574C63.3041 42.3965 64.421 42.866 65.8114 42.866Z" fill="#E6D6C7"/>
<path d="M77.5176 28.0637H91.7591V45.4326H88.6318V30.9129H80.6449V45.4326H77.5176V28.0637Z" fill="#E6D6C7"/>
<path d="M103.571 45.7108C101.091 45.7108 99.1395 44.9814 97.7172 43.5226C96.2948 42.0638 95.5791 39.9667 95.5791 37.236V36.265C95.5791 33.5571 96.2948 31.4646 97.7308 29.9967C99.1668 28.5288 101.113 27.7903 103.566 27.7903C106.041 27.7903 107.993 28.5197 109.419 29.9785C110.842 31.4373 111.558 33.5343 111.558 36.265V37.236C111.558 39.9439 110.837 42.0364 109.401 43.5043C107.97 44.9768 106.028 45.7108 103.571 45.7108ZM103.571 42.8661C105.029 42.8661 106.183 42.4102 107.026 41.4939C107.87 40.5776 108.293 39.1598 108.293 37.2406V36.2696C108.293 34.3731 107.87 32.9599 107.026 32.0299C106.178 31.1045 105.029 30.6395 103.571 30.6395C102.112 30.6395 100.958 31.0954 100.115 32.0117C99.2717 32.928 98.8477 34.3458 98.8477 36.265V37.236C98.8477 39.137 99.2717 40.5502 100.115 41.4757C100.958 42.4011 102.112 42.8661 103.571 42.8661Z" fill="#E6D6C7"/>
<path d="M115.382 28.0637H117.812L118.159 30.4935H118.227C119.039 29.5225 119.887 28.825 120.78 28.4102C121.674 27.9953 122.745 27.7856 123.994 27.7856C125.038 27.7856 125.986 27.9634 126.843 28.3236C127.7 28.6837 128.443 29.2171 129.068 29.9237C129.692 30.6303 130.171 31.5101 130.508 32.5632C130.846 33.6163 131.01 34.8517 131.01 36.2604V37.2314C131.01 38.6218 130.837 39.8436 130.49 40.8966C130.144 41.9497 129.656 42.8387 129.031 43.5544C128.407 44.2747 127.664 44.8126 126.807 45.1682C125.95 45.5283 125.011 45.7061 123.994 45.7061C122.813 45.7061 121.801 45.5192 120.953 45.15C120.11 44.7807 119.317 44.1789 118.574 43.3447H118.505V52.3756H115.378V28.0637H115.382ZM123.128 42.866C124.541 42.866 125.662 42.4101 126.497 41.4938C127.331 40.5775 127.746 39.1597 127.746 37.2405V36.2695C127.746 34.3958 127.322 32.9872 126.479 32.0481C125.635 31.109 124.514 30.6394 123.128 30.6394C121.715 30.6394 120.593 31.0953 119.759 32.0116C118.925 32.9279 118.51 34.3457 118.51 36.2649V37.2359C118.51 39.1096 118.934 40.5183 119.777 41.4574C120.62 42.3965 121.737 42.866 123.128 42.866Z" fill="#E6D6C7"/>
<path d="M139.525 45.7106C137.556 45.7106 136.079 45.2456 135.094 44.3202C134.11 43.3948 133.617 42.132 133.617 40.5319C133.617 38.795 134.201 37.4228 135.372 36.4153C136.539 35.4078 138.445 34.9018 141.084 34.9018H145.078V33.9627C145.078 32.8276 144.782 31.9887 144.193 31.4462C143.601 30.9038 142.625 30.6302 141.258 30.6302C140.009 30.6302 139.092 30.8445 138.513 31.273C137.934 31.7015 137.597 32.2531 137.506 32.9233H134.31C134.356 32.2076 134.533 31.5329 134.848 30.9083C135.163 30.2838 135.605 29.7413 136.184 29.2763C136.763 28.8113 137.474 28.4466 138.322 28.1822C139.165 27.9178 140.145 27.781 141.258 27.781C143.642 27.781 145.397 28.3144 146.518 29.3766C147.64 30.4433 148.205 32.0298 148.205 34.1359V45.4234H145.775L145.392 42.8203H145.324C143.911 44.7533 141.978 45.7106 139.525 45.7106ZM139.872 42.8659C140.588 42.8659 141.267 42.7429 141.905 42.5012C142.543 42.2551 143.099 41.9177 143.574 41.4892C144.048 41.0561 144.417 40.5546 144.686 39.9848C144.95 39.415 145.087 38.7995 145.087 38.1476V37.5185H141.267C139.644 37.5185 138.509 37.792 137.861 38.3391C137.214 38.8861 136.89 39.6019 136.89 40.4908C136.89 41.1883 137.137 41.7627 137.638 42.2049C138.13 42.6426 138.873 42.8659 139.872 42.8659Z" fill="#E6D6C7"/>
<path d="M166.272 45.4326H152.896V28.0637H156.024V42.5834H163.838V28.0637H166.965V42.5834H169.395V49.9458H166.267V45.4326H166.272Z" fill="#E6D6C7"/>
<path d="M172.354 28.0637H175.481V41.6123H175.549L183.121 28.0637H187.288V45.4326H184.161V31.8885H184.092L176.52 45.4371H172.354V28.0637Z" fill="#E6D6C7"/>
<path d="M194.477 38.7631C193.365 38.3255 192.553 37.6873 192.047 36.853C191.536 36.0188 191.281 34.9885 191.281 33.7622C191.281 31.9569 191.846 30.5528 192.982 29.559C194.117 28.5652 195.981 28.0637 198.575 28.0637H204.479V45.4326H201.351V39.3922H198.571C198.384 39.3922 198.201 39.3922 198.014 39.3922C197.828 39.3922 197.645 39.3786 197.458 39.3558L194.053 45.4326H190.579L194.477 38.7631ZM194.55 33.7622C194.55 34.6648 194.851 35.3532 195.452 35.8273C196.054 36.3014 197.153 36.5385 198.753 36.5385H201.361V30.9129H198.753C197.13 30.9129 196.027 31.15 195.434 31.6241C194.842 32.1028 194.55 32.8139 194.55 33.7622Z" fill="#E6D6C7"/>
<path d="M18.0439 48.2454L22.9081 49.2118L29.4044 64.8119L29.4728 64.8256L35.969 51.8012L40.6235 52.7266V77.043L37.3594 76.3957V55.8995L37.291 55.8858L31.0729 68.3723L27.5991 67.6839L21.381 52.7266L21.3126 52.7129V73.2091L18.0485 72.5618V48.2454H18.0439Z" fill="#E6D6C7"/>
<path d="M55.2159 80.2159C53.6887 79.9105 52.2983 79.3817 51.0492 78.6249C49.8001 77.8682 48.7242 76.9017 47.817 75.7255C46.9144 74.5494 46.2123 73.1772 45.7154 71.609C45.2185 70.0408 44.9678 68.3039 44.9678 66.4074V64.7389C44.9678 62.9337 45.2185 61.3746 45.7154 60.0571C46.2123 58.7442 46.9144 57.6865 47.817 56.8796C48.7196 56.0727 49.8046 55.5439 51.0674 55.2841C52.3302 55.0242 53.7115 55.047 55.2204 55.3433C56.6108 55.6214 57.8554 56.0636 58.954 56.6745C60.0527 57.2854 61.0055 58.0148 61.8033 58.8536C62.6011 59.697 63.2484 60.6224 63.7499 61.639C64.2468 62.651 64.5887 63.7087 64.7756 64.8119L61.3018 64.1235C61.1149 63.4397 60.855 62.7832 60.5223 62.1632C60.1849 61.5387 59.7701 60.9734 59.2732 60.4583C58.7763 59.9431 58.1836 59.5009 57.4998 59.1317C56.816 58.767 56.0592 58.498 55.225 58.3339C54.254 58.1424 53.3422 58.1424 52.4988 58.3293C51.6509 58.5208 50.9306 58.9174 50.3289 59.5146C49.7271 60.1118 49.253 60.9005 48.9065 61.8715C48.5601 62.847 48.3868 64.0278 48.3868 65.4136V67.0821C48.3868 68.5409 48.5601 69.8539 48.9065 71.0255C49.253 72.1971 49.7362 73.2045 50.3471 74.057C50.9625 74.9095 51.6828 75.6025 52.5171 76.1404C53.3513 76.6783 54.254 77.0385 55.225 77.2345C56.9163 77.5718 58.2657 77.3804 59.2732 76.6646C60.2806 75.9489 60.9599 74.8958 61.3064 73.5054L64.7801 74.1938C64.5932 75.3153 64.2513 76.3091 63.7544 77.1707C63.2575 78.0323 62.6102 78.7389 61.8078 79.2859C61.01 79.833 60.0573 80.1931 58.9586 80.3709C57.8508 80.5441 56.6063 80.494 55.2159 80.2159Z" fill="#E6D6C7"/>
<path d="M68.7646 58.311L87.5239 62.0355V86.352L84.2599 85.7046V64.3742L72.0333 61.9489V83.2793L68.7692 82.632V58.311H68.7646Z" fill="#E6D6C7"/>
<path d="M262.51 42.2961H261.932C261.366 42.2961 260.856 42.2049 260.4 42.0226C259.939 41.8402 259.547 41.5758 259.224 41.2293C258.895 40.8829 258.645 40.4589 258.471 39.962C258.294 39.4651 258.207 38.8953 258.207 38.257V37.792C258.207 37.1629 258.298 36.5976 258.481 36.1007C258.663 35.6038 258.918 35.1799 259.242 34.8334C259.566 34.4869 259.962 34.218 260.418 34.0311C260.878 33.8442 261.38 33.7484 261.936 33.7484H262.515V30.5664H264.006V33.7484H264.585C265.15 33.7484 265.661 33.8396 266.116 34.0219C266.577 34.2043 266.969 34.4687 267.293 34.8152C267.616 35.1616 267.872 35.5856 268.045 36.0825C268.223 36.5794 268.309 37.1493 268.309 37.7875V38.2525C268.309 38.8816 268.218 39.4469 268.036 39.9529C267.853 40.4543 267.598 40.8829 267.274 41.2293C266.951 41.5758 266.554 41.8448 266.098 42.0226C265.638 42.2049 265.136 42.2961 264.585 42.2961H264.006V45.4781H262.515V42.2961H262.51ZM259.762 38.257C259.762 39.1505 259.962 39.8207 260.368 40.272C260.769 40.7188 261.293 40.9421 261.932 40.9421H262.51V35.1069H261.932C261.271 35.1069 260.742 35.3257 260.35 35.7634C259.958 36.201 259.762 36.8757 259.762 37.792V38.257ZM266.755 37.792C266.755 36.8985 266.554 36.2284 266.148 35.7771C265.747 35.3303 265.223 35.1069 264.585 35.1069H264.006V40.9376H264.585C265.246 40.9376 265.775 40.7188 266.167 40.2811C266.559 39.8435 266.755 39.1688 266.755 38.2525V37.792Z" fill="#E6D6C7"/>
<path d="M273.611 42.296C273.028 42.296 272.499 42.2048 272.029 42.0224C271.56 41.8401 271.159 41.5757 270.83 41.2292C270.498 40.8827 270.247 40.4588 270.069 39.9619C269.891 39.465 269.805 38.8951 269.805 38.2569V37.7919C269.805 37.1491 269.891 36.5793 270.069 36.0778C270.247 35.5764 270.498 35.1524 270.821 34.8105C271.145 34.4686 271.537 34.2042 271.997 34.0218C272.453 33.8395 272.968 33.7483 273.529 33.7483C274.094 33.7483 274.605 33.8395 275.061 34.0218C275.517 34.2042 275.913 34.4731 276.237 34.8287C276.561 35.1843 276.816 35.6174 276.989 36.1234C277.167 36.634 277.254 37.2221 277.254 37.8876V38.4848H271.355C271.377 39.2644 271.578 39.8661 271.961 40.2947C272.344 40.7232 272.864 40.9375 273.525 40.9375C274.053 40.9375 274.491 40.8372 274.833 40.6411C275.175 40.4451 275.435 40.126 275.613 39.6884H277.172C276.971 40.5454 276.565 41.1973 275.954 41.6349C275.344 42.0771 274.564 42.296 273.611 42.296ZM273.529 35.1068C272.9 35.1068 272.403 35.2892 272.038 35.6539C271.674 36.0186 271.455 36.5474 271.377 37.2449H275.699C275.567 35.818 274.842 35.1068 273.529 35.1068Z" fill="#E6D6C7"/>
<path d="M278.252 40.8054H279.081C279.259 40.5638 279.405 40.3039 279.519 40.0349C279.633 39.766 279.729 39.4605 279.802 39.1232C279.875 38.7858 279.925 38.3938 279.952 37.947C279.979 37.5003 279.993 36.9715 279.993 36.3651V33.8806H285.956V40.8054H286.95V44.3156H285.523V42.1639H279.674V44.3156H278.247V40.8054H278.252ZM284.465 40.8054V35.2391H281.415V36.3651C281.415 36.9076 281.406 37.3909 281.383 37.8148C281.361 38.2388 281.324 38.6263 281.27 38.9727C281.215 39.3192 281.142 39.6429 281.055 39.9346C280.969 40.2264 280.864 40.5045 280.741 40.7735V40.8054H284.465Z" fill="#E6D6C7"/>
<path d="M291.837 42.296C291.253 42.296 290.725 42.2048 290.255 42.0224C289.785 41.8401 289.384 41.5757 289.056 41.2292C288.723 40.8827 288.472 40.4588 288.295 39.9619C288.117 39.465 288.03 38.8951 288.03 38.2569V37.7919C288.03 37.1491 288.117 36.5793 288.295 36.0778C288.472 35.5764 288.723 35.1524 289.047 34.8105C289.371 34.4686 289.763 34.2042 290.223 34.0218C290.679 33.8395 291.194 33.7483 291.755 33.7483C292.315 33.7483 292.831 33.8395 293.287 34.0218C293.747 34.2042 294.139 34.4731 294.463 34.8287C294.786 35.1843 295.042 35.6174 295.215 36.1234C295.393 36.634 295.479 37.2221 295.479 37.8876V38.4848H289.58C289.603 39.2644 289.804 39.8661 290.187 40.2947C290.569 40.7232 291.089 40.9375 291.75 40.9375C292.279 40.9375 292.717 40.8372 293.059 40.6411C293.4 40.4451 293.66 40.126 293.838 39.6884H295.397C295.197 40.5454 294.791 41.1973 294.18 41.6349C293.569 42.0771 292.785 42.296 291.837 42.296ZM291.755 35.1068C291.126 35.1068 290.629 35.2892 290.264 35.6539C289.899 36.0186 289.681 36.5474 289.603 37.2449H293.925C293.793 35.818 293.068 35.1068 291.755 35.1068Z" fill="#E6D6C7"/>
<path d="M297.466 33.8805H298.624L298.789 35.0384H298.82C299.208 34.5734 299.614 34.2452 300.038 34.0446C300.462 33.844 300.972 33.7483 301.569 33.7483C302.066 33.7483 302.518 33.8349 302.928 34.0036C303.338 34.1768 303.689 34.4275 303.99 34.7649C304.286 35.1022 304.519 35.5216 304.678 36.0231C304.838 36.5246 304.92 37.1127 304.92 37.7874V38.2523C304.92 38.9134 304.838 39.4969 304.669 39.9983C304.505 40.4998 304.273 40.9238 303.972 41.2657C303.675 41.6076 303.32 41.8629 302.91 42.0361C302.499 42.2093 302.053 42.2914 301.569 42.2914C301.004 42.2914 300.521 42.2048 300.12 42.027C299.719 41.8492 299.34 41.562 298.985 41.1654H298.953V45.4734H297.462V33.8805H297.466ZM301.164 40.9375C301.838 40.9375 302.372 40.7186 302.768 40.281C303.165 39.8434 303.366 39.1687 303.366 38.2523V37.7919C303.366 36.8984 303.165 36.2283 302.759 35.7769C302.358 35.3302 301.825 35.1068 301.159 35.1068C300.484 35.1068 299.951 35.3256 299.554 35.7633C299.158 36.2009 298.957 36.8756 298.957 37.7919V38.2569C298.957 39.1504 299.158 39.8206 299.563 40.2719C299.969 40.7141 300.498 40.9375 301.164 40.9375Z" fill="#E6D6C7"/>
<path d="M309.147 42.296C308.208 42.296 307.506 42.0772 307.036 41.635C306.566 41.1928 306.334 40.5911 306.334 39.8298C306.334 39.0001 306.612 38.3482 307.173 37.8649C307.729 37.3863 308.641 37.1446 309.899 37.1446H311.804V36.6979C311.804 36.1554 311.663 35.7588 311.381 35.4989C311.098 35.2391 310.633 35.1114 309.981 35.1114C309.384 35.1114 308.946 35.2117 308.673 35.4169C308.395 35.622 308.235 35.8819 308.194 36.2055H306.671C306.694 35.8636 306.781 35.5445 306.927 35.2436C307.077 34.9473 307.287 34.6875 307.565 34.4641C307.843 34.2453 308.18 34.0675 308.581 33.9444C308.983 33.8168 309.452 33.7529 309.981 33.7529C311.121 33.7529 311.955 34.0082 312.493 34.5142C313.026 35.0248 313.295 35.7816 313.295 36.7845V42.1684H312.137L311.955 40.9239H311.923C311.239 41.8402 310.318 42.296 309.147 42.296ZM309.315 40.9375C309.657 40.9375 309.981 40.8783 310.286 40.7643C310.592 40.6458 310.856 40.4862 311.08 40.2811C311.308 40.0759 311.481 39.8343 311.608 39.5653C311.736 39.2964 311.8 39.0001 311.8 38.6901V38.3892H309.976C309.201 38.3892 308.664 38.5214 308.354 38.7812C308.044 39.0411 307.889 39.383 307.889 39.807C307.889 40.1397 308.007 40.4133 308.244 40.623C308.481 40.8327 308.841 40.9375 309.315 40.9375Z" fill="#E6D6C7"/>
<path d="M314.699 40.9376H314.945C315.264 40.9376 315.515 40.8327 315.697 40.623C315.88 40.4133 316.012 40.1124 316.094 39.7204C316.176 39.3283 316.226 38.8542 316.244 38.3026C316.263 37.751 316.267 37.131 316.267 36.4472V33.8806H322.23V42.1639H320.739V35.2391H317.758V36.4472C317.758 37.2085 317.74 37.9425 317.708 38.6491C317.676 39.3557 317.571 39.9802 317.393 40.5227C317.215 41.0652 316.937 41.4937 316.554 41.8129C316.171 42.132 315.633 42.2915 314.94 42.2915H314.694V40.9376H314.699Z" fill="#E6D6C7"/>
<path d="M324.724 33.8806H326.214V36.5293H327.869C329.009 36.5293 329.843 36.7754 330.381 37.2769C330.919 37.7738 331.183 38.4622 331.183 39.3466C331.183 40.2173 330.914 40.9057 330.372 41.4071C329.829 41.9086 328.995 42.1593 327.869 42.1593H324.724V33.8806ZM326.214 37.8923V40.8099H327.787C328.462 40.8099 328.936 40.6868 329.214 40.4452C329.492 40.2036 329.629 39.8389 329.629 39.3511C329.629 38.877 329.488 38.5123 329.205 38.2661C328.922 38.02 328.453 37.8923 327.787 37.8923H326.214Z" fill="#E6D6C7"/>
<path d="M332.838 33.8806H334.329V37.2587H338.473V33.8806H339.963V42.1639H338.473V38.6172H334.329V42.1639H332.838V33.8806Z" fill="#E6D6C7"/>
<path d="M344.687 42.296C343.748 42.296 343.046 42.0772 342.576 41.635C342.107 41.1928 341.874 40.5911 341.874 39.8298C341.874 39.0001 342.152 38.3482 342.713 37.8649C343.269 37.3863 344.181 37.1446 345.439 37.1446H347.345V36.6979C347.345 36.1554 347.203 35.7588 346.921 35.4989C346.638 35.2391 346.173 35.1114 345.521 35.1114C344.924 35.1114 344.486 35.2117 344.213 35.4169C343.935 35.622 343.775 35.8819 343.734 36.2055H342.211C342.234 35.8636 342.321 35.5445 342.467 35.2436C342.617 34.9473 342.827 34.6875 343.105 34.4641C343.383 34.2453 343.72 34.0675 344.121 33.9444C344.523 33.8168 344.992 33.7529 345.521 33.7529C346.661 33.7529 347.495 34.0082 348.033 34.5142C348.566 35.0248 348.835 35.7816 348.835 36.7845V42.1684H347.677L347.495 40.9239H347.463C346.779 41.8402 345.854 42.296 344.687 42.296ZM344.851 40.9375C345.193 40.9375 345.516 40.8783 345.822 40.7643C346.127 40.6458 346.392 40.4862 346.615 40.2811C346.843 40.0759 347.016 39.8343 347.144 39.5653C347.272 39.2964 347.335 39.0001 347.335 38.6901V38.3892H345.512C344.737 38.3892 344.199 38.5214 343.889 38.7812C343.579 39.0411 343.424 39.383 343.424 39.807C343.424 40.1397 343.543 40.4133 343.78 40.623C344.017 40.8327 344.377 40.9375 344.851 40.9375Z" fill="#E6D6C7"/>
<path d="M352.341 38.9819C351.812 38.7722 351.425 38.4667 351.183 38.0701C350.942 37.6735 350.818 37.1812 350.818 36.5976C350.818 35.736 351.087 35.0659 351.63 34.5918C352.172 34.1177 353.061 33.8806 354.297 33.8806H357.114V42.1639H355.623V39.2827H354.297C354.21 39.2827 354.119 39.2827 354.032 39.2827C353.946 39.2827 353.855 39.2782 353.768 39.2645L352.145 42.1639H350.49L352.341 38.9819ZM352.373 36.5976C352.373 37.0262 352.514 37.3589 352.802 37.5823C353.089 37.8103 353.613 37.9242 354.374 37.9242H355.619V35.2391H354.374C353.599 35.2391 353.075 35.3531 352.792 35.581C352.514 35.8044 352.373 36.1463 352.373 36.5976Z" fill="#E6D6C7"/>
<path d="M363.738 33.8806H365.229V37.1766H366.387L368.639 33.8806H370.362L367.563 37.8057L370.695 42.1639H368.908L366.391 38.5351H365.234V42.1639H363.743V33.8806H363.738Z" fill="#E6D6C7"/>
<path d="M375.5 42.296C374.319 42.296 373.389 41.9495 372.71 41.252C372.03 40.5545 371.688 39.5562 371.688 38.2523V37.7919C371.688 36.5018 372.03 35.5034 372.714 34.8014C373.398 34.0993 374.328 33.7483 375.5 33.7483C376.68 33.7483 377.61 34.0948 378.29 34.7922C378.969 35.4897 379.311 36.4881 379.311 37.7919V38.2569C379.311 39.547 378.969 40.5454 378.285 41.2474C377.597 41.9449 376.671 42.296 375.5 42.296ZM375.5 40.9375C376.197 40.9375 376.744 40.7186 377.15 40.281C377.551 39.8434 377.756 39.1687 377.756 38.2523V37.7919C377.756 36.8847 377.556 36.21 377.15 35.7724C376.749 35.3302 376.197 35.1114 375.5 35.1114C374.802 35.1114 374.255 35.3302 373.849 35.7678C373.448 36.2055 373.243 36.8802 373.243 37.7965V38.2615C373.243 39.1687 373.444 39.8434 373.849 40.281C374.255 40.7186 374.802 40.9375 375.5 40.9375Z" fill="#E6D6C7"/>
<path d="M381.298 33.8805H382.456L382.621 35.0384H382.652C383.04 34.5734 383.446 34.2452 383.87 34.0446C384.294 33.844 384.804 33.7483 385.401 33.7483C385.898 33.7483 386.35 33.8349 386.76 34.0036C387.17 34.1768 387.521 34.4275 387.822 34.7649C388.118 35.1022 388.351 35.5216 388.51 36.0231C388.67 36.5246 388.752 37.1127 388.752 37.7874V38.2523C388.752 38.9134 388.67 39.4969 388.501 39.9983C388.337 40.4998 388.105 40.9238 387.804 41.2657C387.508 41.6076 387.152 41.8629 386.742 42.0361C386.331 42.2093 385.885 42.2914 385.401 42.2914C384.836 42.2914 384.353 42.2048 383.952 42.027C383.551 41.8492 383.172 41.562 382.817 41.1654H382.785V45.4734H381.294V33.8805H381.298ZM384.991 40.9375C385.666 40.9375 386.199 40.7186 386.596 40.281C386.992 39.8434 387.193 39.1687 387.193 38.2523V37.7919C387.193 36.8984 386.992 36.2283 386.587 35.7769C386.185 35.3302 385.652 35.1068 384.987 35.1068C384.312 35.1068 383.778 35.3256 383.382 35.7633C382.985 36.2009 382.785 36.8756 382.785 37.7919V38.2569C382.785 39.1504 382.985 39.8206 383.391 40.2719C383.797 40.7141 384.33 40.9375 384.991 40.9375Z" fill="#E6D6C7"/>
<path d="M390.739 33.8806H397.532V42.1639H396.041V35.2391H392.23V42.1639H390.739V33.8806Z" fill="#E6D6C7"/>
<path d="M403.331 42.296C402.15 42.296 401.22 41.9495 400.541 41.252C399.861 40.5545 399.52 39.5562 399.52 38.2523V37.7919C399.52 36.5018 399.861 35.5034 400.545 34.8014C401.229 34.0993 402.159 33.7483 403.331 33.7483C404.511 33.7483 405.441 34.0948 406.121 34.7922C406.8 35.4897 407.142 36.4881 407.142 37.7919V38.2569C407.142 39.547 406.8 40.5454 406.116 41.2474C405.432 41.9449 404.502 42.296 403.331 42.296ZM403.331 40.9375C404.028 40.9375 404.575 40.7186 404.981 40.281C405.382 39.8434 405.587 39.1687 405.587 38.2523V37.7919C405.587 36.8847 405.387 36.21 404.981 35.7724C404.58 35.3302 404.028 35.1114 403.331 35.1114C402.633 35.1114 402.086 35.3302 401.68 35.7678C401.279 36.2055 401.074 36.8802 401.074 37.7965V38.2615C401.074 39.1687 401.275 39.8434 401.68 40.281C402.086 40.7186 402.638 40.9375 403.331 40.9375Z" fill="#E6D6C7"/>
<path d="M409.13 33.8805H410.287L410.452 35.0384H410.484C410.871 34.5734 411.277 34.2452 411.701 34.0446C412.125 33.844 412.635 33.7483 413.232 33.7483C413.729 33.7483 414.181 33.8349 414.591 34.0036C415.001 34.1723 415.352 34.4275 415.653 34.7649C415.949 35.1022 416.182 35.5216 416.342 36.0231C416.501 36.5246 416.583 37.1127 416.583 37.7874V38.2523C416.583 38.9134 416.501 39.4969 416.332 39.9983C416.168 40.4998 415.936 40.9238 415.635 41.2657C415.339 41.6076 414.983 41.8629 414.573 42.0361C414.162 42.2093 413.716 42.2914 413.232 42.2914C412.667 42.2914 412.184 42.2048 411.783 42.027C411.382 41.8492 411.003 41.562 410.648 41.1654H410.616V45.4734H409.125V33.8805H409.13ZM412.827 40.9375C413.501 40.9375 414.035 40.7186 414.431 40.281C414.828 39.8434 415.029 39.1687 415.029 38.2523V37.7919C415.029 36.8984 414.828 36.2283 414.422 35.7769C414.021 35.3302 413.488 35.1068 412.822 35.1068C412.147 35.1068 411.614 35.3256 411.217 35.7633C410.821 36.2009 410.62 36.8756 410.62 37.7919V38.2569C410.62 39.1504 410.821 39.8206 411.227 40.2719C411.628 40.7141 412.161 40.9375 412.827 40.9375Z" fill="#E6D6C7"/>
<path d="M420.809 42.296C419.87 42.296 419.168 42.0772 418.698 41.635C418.229 41.1928 417.996 40.5911 417.996 39.8298C417.996 39.0001 418.274 38.3482 418.835 37.8649C419.391 37.3863 420.303 37.1446 421.561 37.1446H423.467V36.6979C423.467 36.1554 423.325 35.7588 423.043 35.4989C422.76 35.2391 422.295 35.1114 421.643 35.1114C421.046 35.1114 420.608 35.2117 420.335 35.4169C420.057 35.622 419.897 35.8819 419.856 36.2055H418.333C418.356 35.8636 418.443 35.5445 418.589 35.2436C418.739 34.9473 418.949 34.6875 419.227 34.4641C419.505 34.2453 419.842 34.0675 420.244 33.9444C420.645 33.8168 421.114 33.7529 421.643 33.7529C422.783 33.7529 423.617 34.0082 424.155 34.5142C424.688 35.0248 424.957 35.7816 424.957 36.7845V42.1684H423.799L423.617 40.9239H423.585C422.901 41.8402 421.98 42.296 420.809 42.296ZM420.978 40.9375C421.319 40.9375 421.643 40.8783 421.949 40.7643C422.254 40.6458 422.518 40.4862 422.742 40.2811C422.97 40.0759 423.147 39.8343 423.271 39.5653C423.398 39.2918 423.462 39.0001 423.462 38.6901V38.3892H421.639C420.864 38.3892 420.326 38.5214 420.016 38.7812C419.706 39.0411 419.551 39.383 419.551 39.807C419.551 40.1397 419.669 40.4133 419.906 40.623C420.143 40.8327 420.503 40.9375 420.978 40.9375Z" fill="#E6D6C7"/>
<path d="M433.732 42.1639H427.354V33.8806H428.845V40.8054H432.574V33.8806H434.065V40.8054H435.223V44.3156H433.732V42.1639Z" fill="#E6D6C7"/>
<path d="M436.797 33.8806H438.288V40.3404H438.319L441.93 33.8806H443.918V42.1639H442.427V35.7041H442.395L438.784 42.1639H436.797V33.8806Z" fill="#E6D6C7"/>
<path d="M447.518 38.9819C446.989 38.7722 446.602 38.4667 446.36 38.0701C446.118 37.6735 445.995 37.1812 445.995 36.5976C445.995 35.736 446.264 35.0659 446.807 34.5918C447.349 34.1177 448.238 33.8806 449.474 33.8806H452.291V42.1639H450.8V39.2827H449.474C449.387 39.2827 449.296 39.2827 449.209 39.2827C449.123 39.2827 449.031 39.2782 448.945 39.2645L447.322 42.1639H445.667L447.518 38.9819ZM447.55 36.5976C447.55 37.0262 447.691 37.3589 447.978 37.5823C448.265 37.8103 448.79 37.9242 449.551 37.9242H450.796V35.2391H449.551C448.776 35.2391 448.252 35.3531 447.969 35.581C447.691 35.8044 447.55 36.1463 447.55 36.5976Z" fill="#E6D6C7"/>
<path d="M258.704 53.1187H265.497V61.4019H264.006V54.4772H260.195V61.4019H258.704V53.1187Z" fill="#E6D6C7"/>
<path d="M271.295 61.5386C270.115 61.5386 269.185 61.1921 268.506 60.4946C267.826 59.7971 267.484 58.7987 267.484 57.4949V57.0299C267.484 55.7398 267.826 54.7414 268.51 54.0394C269.194 53.3374 270.124 52.9863 271.295 52.9863C272.476 52.9863 273.406 53.3328 274.085 54.0303C274.765 54.7278 275.107 55.7261 275.107 57.0299V57.4949C275.107 58.7851 274.765 59.7834 274.081 60.4855C273.393 61.1875 272.463 61.5386 271.295 61.5386ZM271.295 60.18C271.993 60.18 272.54 59.9612 272.946 59.5236C273.347 59.0859 273.552 58.4112 273.552 57.4949V57.0299C273.552 56.1228 273.351 55.4481 272.946 55.0104C272.545 54.5682 271.993 54.3494 271.295 54.3494C270.598 54.3494 270.051 54.5682 269.645 55.0059C269.244 55.4435 269.039 56.1182 269.039 57.0345V57.4995C269.039 58.4067 269.239 59.0814 269.645 59.519C270.046 59.9567 270.598 60.18 271.295 60.18Z" fill="#E6D6C7"/>
<path d="M281.233 53.1185H282.391L282.555 54.2765H282.587C282.975 53.8115 283.38 53.4832 283.804 53.2826C284.228 53.0821 284.739 52.9863 285.336 52.9863C285.833 52.9863 286.284 53.0729 286.694 53.2416C287.105 53.4149 287.456 53.6656 287.757 54.0029C288.053 54.3403 288.285 54.7597 288.445 55.2611C288.605 55.7626 288.687 56.3507 288.687 57.0254V57.4904C288.687 58.1514 288.605 58.7349 288.436 59.2364C288.272 59.7378 288.039 60.1618 287.738 60.5037C287.442 60.8456 287.086 61.1009 286.676 61.2741C286.266 61.4474 285.819 61.5294 285.336 61.5294C284.771 61.5294 284.287 61.4428 283.886 61.265C283.485 61.0872 283.107 60.8 282.751 60.4034H282.719V64.7114H281.229V53.1185H281.233ZM284.926 60.18C285.6 60.18 286.134 59.9612 286.53 59.5236C286.927 59.0859 287.128 58.4112 287.128 57.4949V57.0299C287.128 56.1364 286.927 55.4663 286.521 55.015C286.12 54.5682 285.587 54.3448 284.921 54.3448C284.246 54.3448 283.713 54.5637 283.316 55.0013C282.92 55.4389 282.719 56.1136 282.719 57.0299V57.4949C282.719 58.3885 282.92 59.0586 283.326 59.5099C283.731 59.9521 284.265 60.18 284.926 60.18Z" fill="#E6D6C7"/>
<path d="M292.912 61.5385C291.973 61.5385 291.271 61.3196 290.802 60.8775C290.332 60.4353 290.1 59.8335 290.1 59.0722C290.1 58.2425 290.378 57.5906 290.938 57.1074C291.495 56.6287 292.406 56.3871 293.665 56.3871H295.57V55.9403C295.57 55.3978 295.429 55.0012 295.146 54.7414C294.864 54.4815 294.399 54.3539 293.747 54.3539C293.149 54.3539 292.712 54.4542 292.438 54.6593C292.16 54.8645 292.001 55.1243 291.96 55.448H290.437C290.46 55.1061 290.546 54.787 290.692 54.4861C290.843 54.1898 291.052 53.9299 291.33 53.7065C291.609 53.4877 291.946 53.3099 292.347 53.1868C292.748 53.0592 293.218 52.9954 293.747 52.9954C294.886 52.9954 295.721 53.2507 296.258 53.7567C296.792 54.2673 297.061 55.024 297.061 56.0269V61.4108H295.903L295.721 60.1663H295.689C295.005 61.078 294.084 61.5385 292.912 61.5385ZM293.076 60.18C293.418 60.18 293.742 60.1207 294.048 60.0067C294.353 59.8882 294.617 59.7287 294.841 59.5235C295.064 59.3184 295.242 59.0767 295.37 58.8078C295.497 58.5343 295.561 58.2425 295.561 57.9325V57.6316H293.738C292.963 57.6316 292.425 57.7638 292.115 58.0237C291.805 58.2835 291.65 58.6254 291.65 59.0494C291.65 59.3822 291.768 59.6557 292.005 59.8654C292.247 60.0706 292.602 60.18 293.076 60.18Z" fill="#E6D6C7"/>
<path d="M302.189 61.5386C301.04 61.5386 300.197 61.297 299.655 60.8092C299.112 60.3215 298.798 59.6376 298.711 58.7532H300.27C300.357 59.2182 300.539 59.5693 300.817 59.8154C301.095 60.057 301.551 60.1801 302.194 60.1801C302.846 60.1801 303.302 60.0753 303.561 59.8656C303.821 59.6559 303.949 59.3732 303.949 59.0222C303.949 58.6666 303.817 58.3885 303.561 58.1788C303.302 57.9691 302.846 57.8643 302.194 57.8643H301.282V56.5058H302.194C302.736 56.5058 303.119 56.4055 303.352 56.2095C303.584 56.0089 303.698 55.749 303.698 55.4299C303.698 55.1108 303.584 54.8509 303.352 54.6504C303.119 54.4498 302.732 54.354 302.194 54.354C301.651 54.354 301.259 54.4634 301.018 54.6777C300.776 54.892 300.607 55.2065 300.521 55.6123H298.962C299.048 54.7962 299.349 54.1534 299.864 53.6885C300.379 53.2235 301.154 52.991 302.194 52.991C303.233 52.991 304.004 53.2143 304.505 53.652C305.007 54.0896 305.257 54.664 305.257 55.357C305.257 56.1867 304.902 56.7702 304.195 57.1121V57.144C305.066 57.4996 305.503 58.1424 305.503 59.0815C305.503 59.8018 305.235 60.3898 304.701 60.8457C304.163 61.3061 303.329 61.5386 302.189 61.5386Z" fill="#E6D6C7"/>
<path d="M307.491 53.1187H310.723C311.804 53.1187 312.588 53.3284 313.067 53.7478C313.545 54.1672 313.787 54.7233 313.787 55.4163C313.787 55.7718 313.7 56.0864 313.522 56.369C313.345 56.6517 313.089 56.8842 312.761 57.0711V57.103C313.194 57.2808 313.527 57.5315 313.764 57.8598C314.001 58.188 314.12 58.5664 314.12 58.9949C314.12 59.7471 313.878 60.3352 313.399 60.7637C312.921 61.1877 312.137 61.4019 311.056 61.4019H307.496V53.1187H307.491ZM312.228 55.5074C312.228 55.1883 312.114 54.9376 311.886 54.7552C311.658 54.5729 311.243 54.4817 310.637 54.4817H308.982V56.5514H310.637C311.243 56.5514 311.662 56.4602 311.886 56.2779C312.114 56.0955 312.228 55.8357 312.228 55.5074ZM312.561 58.9128C312.561 58.5572 312.447 58.2792 312.214 58.0877C311.982 57.8917 311.567 57.7959 310.97 57.7959H308.982V60.048H310.97C311.567 60.048 311.982 59.9522 312.214 59.7562C312.447 59.5602 312.561 59.2775 312.561 58.9128Z" fill="#E6D6C7"/>
<path d="M316.107 53.1187H317.598V59.5784H317.63L321.241 53.1187H323.228V61.4019H321.738V54.9422H321.706L318.095 61.4019H316.107V53.1187Z" fill="#E6D6C7"/>
<path d="M327.372 54.4772H324.724V53.1187H331.516V54.4772H328.868V61.4019H327.377V54.4772H327.372Z" fill="#E6D6C7"/>
<path d="M333.003 53.1187H334.494V59.5784H334.526L338.136 53.1187H340.124V61.4019H338.633V54.9422H338.601L334.991 61.4019H333.003V53.1187Z" fill="#E6D6C7"/>
<path d="M342.612 53.1187H344.103V56.4967H345.612C345.699 55.3707 346.068 54.5046 346.715 53.8937C347.363 53.2874 348.206 52.9819 349.241 52.9819C350.358 52.9819 351.242 53.3284 351.898 54.0168C352.555 54.7051 352.883 55.7081 352.883 57.0255V57.4905C352.883 58.7943 352.55 59.7927 351.889 60.4902C351.228 61.1877 350.344 61.5342 349.241 61.5342C348.169 61.5342 347.308 61.2196 346.656 60.5905C346.004 59.9614 345.653 59.0496 345.594 57.8552H344.103V61.402H342.612V53.1187ZM349.241 60.1802C349.884 60.1802 350.39 59.966 350.763 59.542C351.137 59.118 351.329 58.4342 351.329 57.4951V57.0301C351.329 56.091 351.137 55.4072 350.759 54.9832C350.376 54.5593 349.874 54.345 349.241 54.345C348.589 54.345 348.074 54.5547 347.7 54.9741C347.326 55.3935 347.135 56.05 347.135 56.9481V57.413C347.135 58.3841 347.326 59.0907 347.704 59.5238C348.087 59.9614 348.598 60.1802 349.241 60.1802Z" fill="#E6D6C7"/>
<path d="M359.016 53.1187H361.236L363.438 57.8415H363.47L365.671 53.1187H367.791V61.4019H366.301V54.9422H366.269L364.149 59.4964H362.658L360.538 54.9422H360.506V61.4019H359.016V53.1187Z" fill="#E6D6C7"/>
<path d="M372.518 61.5385C371.579 61.5385 370.877 61.3196 370.407 60.8775C369.938 60.4353 369.705 59.8335 369.705 59.0722C369.705 58.2425 369.983 57.5906 370.544 57.1074C371.1 56.6287 372.012 56.3871 373.27 56.3871H375.176V55.9403C375.176 55.3978 375.034 55.0012 374.752 54.7414C374.469 54.4815 374.004 54.3539 373.352 54.3539C372.755 54.3539 372.317 54.4542 372.044 54.6593C371.766 54.8645 371.606 55.1243 371.565 55.448H370.042C370.065 55.1061 370.152 54.787 370.298 54.4861C370.448 54.1898 370.658 53.9299 370.936 53.7065C371.214 53.4877 371.551 53.3099 371.953 53.1868C372.354 53.0592 372.823 52.9954 373.352 52.9954C374.492 52.9954 375.326 53.2507 375.864 53.7567C376.397 54.2673 376.666 55.024 376.666 56.0269V61.4108H375.508L375.326 60.1663H375.294C374.61 61.078 373.685 61.5385 372.518 61.5385ZM372.682 60.18C373.024 60.18 373.348 60.1207 373.653 60.0067C373.958 59.8882 374.223 59.7287 374.446 59.5235C374.674 59.3184 374.847 59.0767 374.975 58.8078C375.103 58.5343 375.166 58.2425 375.166 57.9325V57.6316H373.343C372.568 57.6316 372.03 57.7638 371.72 58.0237C371.41 58.2835 371.255 58.6254 371.255 59.0494C371.255 59.3822 371.374 59.6557 371.611 59.8654C371.848 60.0751 372.208 60.18 372.682 60.18Z" fill="#E6D6C7"/>
<path d="M378.066 60.18H378.312C378.631 60.18 378.882 60.0752 379.064 59.8655C379.247 59.6558 379.379 59.3549 379.461 58.9628C379.543 58.5708 379.593 58.0967 379.612 57.545C379.63 56.9934 379.634 56.3734 379.634 55.6896V53.123H385.597V61.4063H384.106V54.477H381.125V55.6851C381.125 56.4464 381.107 57.1803 381.075 57.887C381.043 58.5936 380.938 59.2181 380.76 59.7606C380.583 60.3031 380.304 60.7316 379.922 61.0507C379.539 61.3698 379.001 61.5294 378.308 61.5294H378.062V60.18H378.066Z" fill="#E6D6C7"/>
<path d="M391.405 61.5386C390.224 61.5386 389.294 61.1921 388.615 60.4946C387.936 59.7971 387.594 58.7987 387.594 57.4949V57.0299C387.594 55.7398 387.936 54.7414 388.619 54.0394C389.303 53.3374 390.233 52.9863 391.405 52.9863C392.586 52.9863 393.516 53.3328 394.195 54.0303C394.874 54.7278 395.216 55.7261 395.216 57.0299V57.4949C395.216 58.7851 394.874 59.7834 394.19 60.4855C393.502 61.1875 392.576 61.5386 391.405 61.5386ZM391.405 60.18C392.102 60.18 392.649 59.9612 393.055 59.5236C393.456 59.0859 393.661 58.4112 393.661 57.4949V57.0299C393.661 56.1228 393.461 55.4481 393.055 55.0104C392.654 54.5682 392.102 54.3494 391.405 54.3494C390.707 54.3494 390.16 54.5682 389.755 55.0059C389.353 55.4435 389.148 56.1182 389.148 57.0345V57.4995C389.148 58.4067 389.349 59.0814 389.755 59.519C390.156 59.9567 390.707 60.18 391.405 60.18Z" fill="#E6D6C7"/>
<path d="M397.204 53.1187H402.752V54.4772H398.695V61.4019H397.204V53.1187Z" fill="#E6D6C7"/>
<path d="M407.556 61.5386C406.376 61.5386 405.446 61.1921 404.766 60.4946C404.087 59.7971 403.745 58.7987 403.745 57.4949V57.0299C403.745 55.7398 404.087 54.7414 404.771 54.0394C405.455 53.3374 406.385 52.9863 407.556 52.9863C408.737 52.9863 409.667 53.3328 410.346 54.0303C411.025 54.7278 411.367 55.7261 411.367 57.0299V57.4949C411.367 58.7851 411.025 59.7834 410.342 60.4855C409.653 61.1875 408.728 61.5386 407.556 61.5386ZM407.556 60.18C408.254 60.18 408.801 59.9612 409.207 59.5236C409.608 59.0859 409.813 58.4112 409.813 57.4949V57.0299C409.813 56.1228 409.612 55.4481 409.207 55.0104C408.805 54.5682 408.254 54.3494 407.556 54.3494C406.859 54.3494 406.312 54.5682 405.906 55.0059C405.505 55.4435 405.3 56.1182 405.3 57.0345V57.4995C405.3 58.4067 405.5 59.0814 405.906 59.519C406.312 59.9567 406.859 60.18 407.556 60.18Z" fill="#E6D6C7"/>
<path d="M417.495 53.1187H418.986V59.5784H419.018L422.628 53.1187H424.616V61.4019H423.125V54.9422H423.093L419.483 61.4019H417.495V53.1187Z" fill="#E6D6C7"/>
<path d="M434.394 61.5386C433.278 61.5386 432.393 61.1921 431.737 60.4946C431.08 59.7971 430.752 58.7714 430.752 57.4129V56.9479C430.752 56.3188 430.839 55.7626 431.016 55.2748C431.194 54.787 431.44 54.3767 431.755 54.0303C432.069 53.6884 432.452 53.4285 432.899 53.2507C433.346 53.0729 433.847 52.9863 434.399 52.9863C434.919 52.9863 435.379 53.0547 435.78 53.1915C436.181 53.3282 436.528 53.5151 436.815 53.7476C437.102 53.9801 437.335 54.2582 437.513 54.5773C437.69 54.8964 437.809 55.2384 437.877 55.6031H436.318C436.195 55.2475 435.99 54.9512 435.698 54.7095C435.406 54.4679 435.001 54.3448 434.481 54.3448C433.82 54.3448 433.291 54.5591 432.899 54.9831C432.507 55.407 432.311 56.0635 432.311 56.9479V57.4129C432.311 58.3748 432.507 59.0768 432.899 59.5145C433.291 59.9567 433.82 60.1755 434.481 60.1755C435.001 60.1755 435.406 60.0433 435.698 59.788C435.99 59.5281 436.2 59.1817 436.318 58.7532H437.877C437.809 59.1634 437.69 59.5327 437.513 59.8701C437.335 60.2074 437.102 60.4992 436.815 60.7499C436.528 60.9961 436.181 61.1921 435.78 61.3289C435.375 61.4656 434.914 61.5386 434.394 61.5386Z" fill="#E6D6C7"/>
<path d="M439.614 53.1185H440.772L440.936 54.2765H440.968C441.355 53.8115 441.761 53.4832 442.185 53.2826C442.609 53.0821 443.12 52.9863 443.717 52.9863C444.214 52.9863 444.665 53.0729 445.075 53.2416C445.486 53.4149 445.837 53.6656 446.138 54.0029C446.434 54.3403 446.666 54.7597 446.826 55.2611C446.985 55.7626 447.067 56.3507 447.067 57.0254V57.4904C447.067 58.1514 446.985 58.7349 446.817 59.2364C446.653 59.7378 446.42 60.1618 446.119 60.5037C445.823 60.8456 445.467 61.1009 445.057 61.2741C444.647 61.4474 444.2 61.5294 443.717 61.5294C443.152 61.5294 442.668 61.4428 442.267 61.265C441.866 61.0872 441.488 60.8 441.132 60.4034H441.1V64.7114H439.609V53.1185H439.614ZM443.307 60.18C443.981 60.18 444.515 59.9612 444.911 59.5236C445.308 59.0859 445.508 58.4112 445.508 57.4949V57.0299C445.508 56.1364 445.308 55.4663 444.902 55.015C444.501 54.5682 443.968 54.3448 443.302 54.3448C442.627 54.3448 442.094 54.5637 441.697 55.0013C441.301 55.4389 441.1 56.1136 441.1 57.0299V57.4949C441.1 58.3885 441.301 59.0586 441.706 59.5099C442.112 59.9521 442.646 60.18 443.307 60.18Z" fill="#E6D6C7"/>
<path d="M452.369 61.5386C451.786 61.5386 451.257 61.4475 450.787 61.2651C450.318 61.0828 449.916 60.8184 449.588 60.4719C449.255 60.1254 449.005 59.7015 448.827 59.2046C448.649 58.7076 448.562 58.1378 448.562 57.4996V57.0346C448.562 56.3918 448.649 55.822 448.827 55.3205C449.005 54.819 449.255 54.3951 449.579 54.0532C449.903 53.7113 450.295 53.4468 450.755 53.2645C451.211 53.0821 451.726 52.991 452.287 52.991C452.852 52.991 453.363 53.0821 453.819 53.2645C454.279 53.4468 454.671 53.7158 454.995 54.0714C455.319 54.427 455.574 54.8601 455.747 55.3661C455.925 55.8767 456.011 56.4647 456.011 57.1303V57.7275H450.112C450.135 58.5071 450.336 59.1088 450.719 59.5373C451.102 59.9659 451.621 60.1801 452.282 60.1801C452.811 60.1801 453.249 60.0798 453.591 59.8838C453.933 59.6878 454.193 59.3687 454.37 58.931H455.929C455.729 59.7881 455.323 60.44 454.712 60.8776C454.101 61.3153 453.317 61.5386 452.369 61.5386ZM452.287 54.3449C451.658 54.3449 451.161 54.5273 450.796 54.892C450.432 55.2567 450.213 55.7855 450.135 56.483H454.457C454.325 55.0606 453.6 54.3449 452.287 54.3449Z" fill="#E6D6C7"/>
<path d="M457.01 60.0478H457.84C458.018 59.8062 458.164 59.5463 458.278 59.2774C458.392 59.0084 458.487 58.703 458.56 58.3656C458.633 58.0283 458.683 57.6362 458.711 57.1895C458.738 56.7427 458.752 56.2139 458.752 55.6076V53.123H464.715V60.0478H465.709V63.558H464.282V61.4063H458.433V63.558H457.006V60.0478H457.01ZM463.219 60.0478V54.477H460.17V55.603C460.17 56.1455 460.161 56.6287 460.138 57.0527C460.115 57.4767 460.078 57.8642 460.024 58.2106C459.969 58.5571 459.896 58.8808 459.81 59.1725C459.723 59.4643 459.618 59.7424 459.495 60.0113V60.0432H463.219V60.0478Z" fill="#E6D6C7"/>
<path d="M467.28 53.1187H468.771V56.4967H472.915V53.1187H474.406V61.4019H472.915V57.8552H468.771V61.4019H467.28V53.1187Z" fill="#E6D6C7"/>
<path d="M480.2 61.5386C479.617 61.5386 479.088 61.4475 478.618 61.2651C478.149 61.0828 477.748 60.8184 477.419 60.4719C477.086 60.1254 476.836 59.7015 476.658 59.2046C476.48 58.7076 476.394 58.1378 476.394 57.4996V57.0346C476.394 56.3918 476.48 55.822 476.658 55.3205C476.836 54.819 477.086 54.3951 477.41 54.0532C477.734 53.7113 478.126 53.4468 478.586 53.2645C479.042 53.0821 479.557 52.991 480.118 52.991C480.683 52.991 481.194 53.0821 481.65 53.2645C482.11 53.4468 482.502 53.7158 482.826 54.0714C483.15 54.427 483.405 54.8601 483.578 55.3661C483.756 55.8767 483.843 56.4647 483.843 57.1303V57.7275H477.944C477.966 58.5071 478.167 59.1088 478.55 59.5373C478.933 59.9659 479.452 60.1801 480.114 60.1801C480.642 60.1801 481.08 60.0798 481.422 59.8838C481.764 59.6878 482.024 59.3687 482.201 58.931H483.761C483.56 59.7881 483.154 60.44 482.543 60.8776C481.932 61.3153 481.153 61.5386 480.2 61.5386ZM480.118 54.3449C479.489 54.3449 478.992 54.5273 478.627 54.892C478.263 55.2567 478.044 55.7855 477.966 56.483H482.288C482.156 55.0606 481.436 54.3449 480.118 54.3449Z" fill="#E6D6C7"/>
<path d="M485.835 53.1187H491.383V54.4772H487.326V61.4019H485.835V53.1187Z" fill="#E6D6C7"/>
<path d="M496.188 61.5386C495.007 61.5386 494.077 61.1921 493.398 60.4946C492.719 59.7971 492.377 58.7987 492.377 57.4949V57.0299C492.377 55.7398 492.719 54.7414 493.403 54.0394C494.086 53.3374 495.017 52.9863 496.188 52.9863C497.369 52.9863 498.299 53.3328 498.978 54.0303C499.657 54.7278 499.999 55.7261 499.999 57.0299V57.4949C499.999 58.7851 499.657 59.7834 498.974 60.4855C498.29 61.1875 497.36 61.5386 496.188 61.5386ZM496.188 60.18C496.886 60.18 497.433 59.9612 497.838 59.5236C498.24 59.0859 498.445 58.4112 498.445 57.4949V57.0299C498.445 56.1228 498.244 55.4481 497.838 55.0104C497.433 54.5682 496.886 54.3494 496.188 54.3494C495.491 54.3494 494.944 54.5682 494.538 55.0059C494.132 55.4435 493.932 56.1182 493.932 57.0345V57.4995C493.932 58.4067 494.132 59.0814 494.538 59.519C494.944 59.9567 495.495 60.18 496.188 60.18Z" fill="#E6D6C7"/>
<path d="M258.704 72.3611H265.497V80.6443H264.006V73.7196H260.195V80.6443H258.704V72.3611Z" fill="#E6D6C7"/>
<path d="M267.981 72.3612H269.139L269.303 73.5191H269.335C269.723 73.0541 270.128 72.7259 270.552 72.5253C270.976 72.3247 271.487 72.229 272.084 72.229C272.581 72.229 273.032 72.3156 273.443 72.4843C273.853 72.6575 274.204 72.9083 274.505 73.2456C274.801 73.583 275.033 74.0024 275.193 74.5038C275.353 75.0053 275.435 75.5934 275.435 76.2681V76.7331C275.435 77.3941 275.353 77.9776 275.184 78.4791C275.02 78.9805 274.787 79.4045 274.486 79.7464C274.19 80.0883 273.835 80.3436 273.424 80.5168C273.014 80.6901 272.567 80.7721 272.084 80.7721C271.519 80.7721 271.035 80.6855 270.634 80.5077C270.233 80.3299 269.855 80.0427 269.499 79.6461H269.467V83.9541H267.977V72.3612H267.981ZM271.674 79.4182C272.348 79.4182 272.882 79.1993 273.278 78.7617C273.675 78.3241 273.876 77.6494 273.876 76.7331V76.2681C273.876 75.3745 273.675 74.7044 273.269 74.2531C272.868 73.8063 272.335 73.583 271.669 73.583C270.994 73.583 270.461 73.8018 270.064 74.2394C269.668 74.6771 269.467 75.3518 269.467 76.2681V76.7331C269.467 77.6266 269.668 78.2967 270.074 78.748C270.479 79.1948 271.013 79.4182 271.674 79.4182Z" fill="#E6D6C7"/>
<path d="M280.736 80.7767C280.153 80.7767 279.624 80.6855 279.154 80.5031C278.685 80.3208 278.284 80.0564 277.955 79.7099C277.623 79.3635 277.372 78.9395 277.194 78.4426C277.016 77.9457 276.93 77.3758 276.93 76.7376V76.2726C276.93 75.6298 277.016 75.06 277.194 74.5585C277.372 74.0571 277.623 73.6331 277.946 73.2912C278.27 72.9493 278.662 72.6849 279.122 72.5025C279.578 72.3202 280.093 72.229 280.654 72.229C281.215 72.229 281.73 72.3202 282.186 72.5025C282.646 72.6849 283.038 72.9538 283.362 73.3094C283.686 73.665 283.941 74.0981 284.114 74.6041C284.292 75.1147 284.379 75.7028 284.379 76.3684V76.9656H278.48C278.502 77.7451 278.703 78.3469 279.086 78.7754C279.469 79.2039 279.989 79.4182 280.65 79.4182C281.178 79.4182 281.616 79.3179 281.958 79.1218C282.3 78.9258 282.56 78.6067 282.738 78.1691H284.297C284.096 79.0261 283.69 79.678 283.079 80.1157C282.469 80.5579 281.684 80.7767 280.736 80.7767ZM280.654 73.5875C280.025 73.5875 279.528 73.7699 279.163 74.1346C278.799 74.4993 278.58 75.0281 278.502 75.7256H282.824C282.692 74.2987 281.967 73.5875 280.654 73.5875Z" fill="#E6D6C7"/>
<path d="M285.373 79.2858H286.202C286.38 79.0442 286.526 78.7844 286.64 78.5154C286.754 78.2464 286.85 77.941 286.923 77.6037C286.996 77.2663 287.046 76.8743 287.073 76.4275C287.1 75.9807 287.114 75.4519 287.114 74.8456V72.3611H293.077V79.2858H294.071V82.7961H292.644V80.6443H286.795V82.7961H285.368V79.2858H285.373ZM291.586 79.2858V73.7196H288.537V74.8456C288.537 75.3881 288.527 75.8713 288.505 76.2953C288.482 76.7193 288.445 77.1067 288.391 77.4532C288.336 77.7997 288.263 78.1234 288.176 78.4151C288.09 78.7069 287.985 78.985 287.862 79.2539V79.2858H291.586Z" fill="#E6D6C7"/>
<path d="M295.648 72.3611H302.441V80.6443H300.95V73.7196H297.139V80.6443H295.648V72.3611Z" fill="#E6D6C7"/>
<path d="M304.925 72.3612H306.083L306.248 73.5191H306.279C306.667 73.0541 307.073 72.7259 307.497 72.5253C307.921 72.3247 308.431 72.229 309.028 72.229C309.525 72.229 309.977 72.3156 310.387 72.4843C310.797 72.653 311.148 72.9083 311.449 73.2456C311.745 73.583 311.978 74.0024 312.137 74.5038C312.297 75.0053 312.379 75.5934 312.379 76.2681V76.7331C312.379 77.3941 312.297 77.9776 312.128 78.4791C311.964 78.9805 311.732 79.4045 311.431 79.7464C311.134 80.0883 310.779 80.3436 310.369 80.5168C309.958 80.6901 309.512 80.7721 309.028 80.7721C308.463 80.7721 307.98 80.6855 307.579 80.5077C307.177 80.3299 306.799 80.0427 306.444 79.6461H306.412V83.9541H304.921V72.3612H304.925ZM308.618 79.4182C309.293 79.4182 309.826 79.1993 310.223 78.7617C310.619 78.3241 310.82 77.6494 310.82 76.7331V76.2681C310.82 75.3745 310.619 74.7044 310.214 74.2531C309.812 73.8063 309.279 73.583 308.613 73.583C307.939 73.583 307.405 73.8018 307.009 74.2394C306.612 74.6771 306.412 75.3518 306.412 76.2681V76.7331C306.412 77.6266 306.612 78.2967 307.018 78.748C307.424 79.1948 307.957 79.4182 308.618 79.4182Z" fill="#E6D6C7"/>
<path d="M314.366 72.3611H315.857V78.8208H315.889L319.499 72.3611H321.487V80.6443H319.996V74.1846H319.964L316.354 80.6443H314.366V72.3611Z" fill="#E6D6C7"/>
<path d="M323.976 72.3611H325.466V75.7391H329.61V72.3611H331.101V80.6443H329.61V77.0976H325.466V80.6443H323.976V72.3611Z" fill="#E6D6C7"/>
<path d="M333.586 72.3611H335.077V78.8208H335.109L338.719 72.3611H340.707V80.6443H339.216V74.1846H339.184L335.574 80.6443H333.586V72.3611Z" fill="#E6D6C7"/>
<path d="M343.191 72.3611H345.412L347.613 77.084H347.645L349.847 72.3611H351.967V80.6443H350.476V74.1846H350.444L348.325 78.7388H346.834L344.714 74.1846H344.682V80.6443H343.191V72.3611Z" fill="#E6D6C7"/>
<path d="M356.694 80.7765C355.755 80.7765 355.052 80.5577 354.583 80.1155C354.113 79.6733 353.881 79.0715 353.881 78.3102C353.881 77.4805 354.159 76.8286 354.72 76.3454C355.276 75.8667 356.188 75.6251 357.446 75.6251H359.351V75.1784C359.351 74.6359 359.21 74.2393 358.927 73.9794C358.645 73.7196 358.18 73.5919 357.528 73.5919C356.931 73.5919 356.493 73.6922 356.22 73.8973C355.941 74.1025 355.782 74.3623 355.741 74.686H354.218C354.241 74.3441 354.328 74.025 354.473 73.7241C354.624 73.4278 354.834 73.1679 355.112 72.9446C355.39 72.7257 355.727 72.548 356.128 72.4249C356.529 72.2972 356.999 72.2334 357.528 72.2334C358.668 72.2334 359.502 72.4887 360.04 72.9947C360.573 73.5053 360.842 74.262 360.842 75.265V80.6489H359.684L359.502 79.4043H359.47C358.786 80.3161 357.865 80.7765 356.694 80.7765ZM356.862 79.418C357.204 79.418 357.528 79.3587 357.833 79.2448C358.139 79.1262 358.403 78.9667 358.627 78.7615C358.854 78.5564 359.028 78.3148 359.155 78.0458C359.283 77.7723 359.347 77.4805 359.347 77.1705V76.8697H357.523C356.748 76.8697 356.21 77.0019 355.9 77.2617C355.59 77.5216 355.435 77.8635 355.435 78.2874C355.435 78.6202 355.554 78.8937 355.791 79.1034C356.028 79.3132 356.384 79.418 356.862 79.418Z" fill="#E6D6C7"/>
<path d="M364.896 73.7196H362.247V72.3611H369.04V73.7196H366.391V80.6443H364.9V73.7196H364.896Z" fill="#E6D6C7"/>
<path d="M373.845 80.7767C373.261 80.7767 372.732 80.6855 372.263 80.5031C371.793 80.3208 371.392 80.0564 371.064 79.7099C370.731 79.3635 370.48 78.9395 370.302 78.4426C370.125 77.9457 370.038 77.3758 370.038 76.7376V76.2726C370.038 75.6298 370.125 75.06 370.302 74.5585C370.48 74.0571 370.731 73.6331 371.055 73.2912C371.378 72.9493 371.77 72.6849 372.231 72.5025C372.687 72.3202 373.202 72.229 373.763 72.229C374.328 72.229 374.838 72.3202 375.294 72.5025C375.755 72.6849 376.147 72.9538 376.47 73.3094C376.794 73.665 377.049 74.0981 377.223 74.6041C377.4 75.1147 377.487 75.7028 377.487 76.3684V76.9656H371.588C371.611 77.7451 371.811 78.3469 372.194 78.7754C372.577 79.2039 373.097 79.4182 373.758 79.4182C374.287 79.4182 374.724 79.3179 375.066 79.1218C375.408 78.9258 375.668 78.6067 375.846 78.1691H377.405C377.204 79.0261 376.799 79.678 376.188 80.1157C375.572 80.5579 374.793 80.7767 373.845 80.7767ZM373.758 73.5875C373.129 73.5875 372.632 73.7699 372.267 74.1346C371.903 74.4993 371.684 75.0281 371.606 75.7256H375.928C375.796 74.2987 375.076 73.5875 373.758 73.5875Z" fill="#E6D6C7"/>
<path d="M378.481 79.418H378.727C379.046 79.418 379.297 79.3132 379.479 79.1035C379.662 78.8938 379.794 78.5929 379.876 78.2009C379.958 77.8088 380.008 77.3347 380.027 76.7831C380.045 76.2315 380.049 75.6115 380.049 74.9277V72.3611H386.012V80.6443H384.521V73.7196H381.54V74.9277C381.54 75.689 381.522 76.4229 381.49 77.1295C381.458 77.8362 381.353 78.4607 381.175 79.0032C380.998 79.5457 380.719 79.9742 380.337 80.2933C379.954 80.6124 379.416 80.772 378.723 80.772H378.477V79.418H378.481Z" fill="#E6D6C7"/>
<path d="M388.506 72.3611H389.997V75.0097H391.651C392.791 75.0097 393.625 75.2559 394.163 75.7574C394.701 76.2543 394.966 76.9426 394.966 77.827C394.966 78.6978 394.697 79.3861 394.154 79.8876C393.612 80.3891 392.777 80.6398 391.651 80.6398H388.506V72.3611ZM389.997 76.3682V79.2858H391.569C392.244 79.2858 392.718 79.1627 392.996 78.9211C393.274 78.6795 393.411 78.3148 393.411 77.827C393.411 77.3529 393.27 76.9882 392.987 76.7421C392.704 76.4959 392.235 76.3682 391.569 76.3682H389.997Z" fill="#E6D6C7"/>
<path d="M399.769 80.7766C398.653 80.7766 397.768 80.4301 397.112 79.7326C396.455 79.0351 396.127 78.0094 396.127 76.6509V76.1859C396.127 75.5568 396.214 75.0007 396.391 74.5129C396.569 74.0251 396.815 73.6148 397.13 73.2683C397.444 72.9264 397.827 72.6666 398.274 72.4888C398.721 72.311 399.222 72.2244 399.774 72.2244C400.294 72.2244 400.754 72.2928 401.155 72.4295C401.556 72.5663 401.903 72.7532 402.19 72.9857C402.477 73.2182 402.71 73.4963 402.888 73.8154C403.065 74.1345 403.184 74.4764 403.252 74.8411H401.693C401.57 74.4855 401.365 74.1892 401.073 73.9476C400.781 73.706 400.376 73.5829 399.856 73.5829C399.195 73.5829 398.666 73.7971 398.274 74.2211C397.882 74.6451 397.686 75.3015 397.686 76.1859V76.6509C397.686 77.6128 397.882 78.3149 398.274 78.7525C398.666 79.1947 399.195 79.4135 399.856 79.4135C400.376 79.4135 400.781 79.2813 401.073 79.026C401.365 78.7662 401.575 78.4197 401.693 77.9912H403.252C403.184 78.4015 403.065 78.7707 402.888 79.1081C402.71 79.4454 402.477 79.7372 402.19 79.9879C401.903 80.2341 401.556 80.4301 401.155 80.5669C400.75 80.7082 400.289 80.7766 399.769 80.7766Z" fill="#E6D6C7"/>
<path d="M406.645 73.7196H403.996V72.3611H410.789V73.7196H408.14V80.6443H406.649V73.7196H406.645Z" fill="#E6D6C7"/>
<path d="M412.279 72.3611H415.511C416.592 72.3611 417.376 72.5708 417.855 72.9902C418.333 73.4096 418.575 73.9658 418.575 74.6587C418.575 75.0143 418.488 75.3288 418.311 75.6115C418.133 75.8941 417.877 76.1266 417.549 76.3135V76.3454C417.982 76.5232 418.315 76.774 418.552 77.1022C418.789 77.4304 418.908 77.8088 418.908 78.2373C418.908 78.9895 418.666 79.5776 418.187 80.0061C417.709 80.4301 416.925 80.6443 415.844 80.6443H412.284V72.3611H412.279ZM417.016 74.7453C417.016 74.4262 416.902 74.1755 416.674 73.9931C416.446 73.8108 416.031 73.7196 415.425 73.7196H413.77V75.7893H415.425C416.031 75.7893 416.451 75.6981 416.674 75.5157C416.902 75.3334 417.016 75.0781 417.016 74.7453ZM417.349 78.1507C417.349 77.7951 417.235 77.517 417.002 77.3256C416.77 77.1295 416.355 77.0338 415.758 77.0338H413.77V79.2858H415.758C416.355 79.2858 416.77 79.1901 417.002 78.9941C417.23 78.7981 417.349 78.5154 417.349 78.1507Z" fill="#E6D6C7"/>
<path d="M423.129 80.7765C422.19 80.7765 421.488 80.5577 421.018 80.1155C420.549 79.6733 420.316 79.0715 420.316 78.3102C420.316 77.4805 420.595 76.8286 421.155 76.3454C421.711 75.8667 422.623 75.6251 423.881 75.6251H425.787V75.1784C425.787 74.6359 425.646 74.2393 425.363 73.9794C425.08 73.7196 424.615 73.5919 423.963 73.5919C423.366 73.5919 422.929 73.6922 422.655 73.8973C422.377 74.1025 422.217 74.3623 422.176 74.686H420.654C420.677 74.3441 420.763 74.025 420.909 73.7241C421.059 73.4278 421.269 73.1679 421.547 72.9446C421.825 72.7257 422.163 72.548 422.564 72.4249C422.965 72.2972 423.435 72.2334 423.963 72.2334C425.103 72.2334 425.937 72.4887 426.475 72.9947C427.009 73.5053 427.278 74.262 427.278 75.265V80.6489H426.12L425.937 79.4043H425.905C425.222 80.3161 424.301 80.7765 423.129 80.7765ZM423.293 79.418C423.635 79.418 423.959 79.3587 424.264 79.2448C424.57 79.1262 424.834 78.9667 425.058 78.7615C425.285 78.5564 425.463 78.3148 425.586 78.0458C425.714 77.7723 425.778 77.4805 425.778 77.1705V76.8697H423.954C423.179 76.8697 422.641 77.0019 422.331 77.2617C422.021 77.5216 421.866 77.8635 421.866 78.2874C421.866 78.6202 421.985 78.8937 422.222 79.1034C422.464 79.3132 422.819 79.418 423.293 79.418Z" fill="#E6D6C7"/>
</svg>
